<svg width="500" height="500" version="1.1" xmlns="http://www.w3.org/2000/svg" desc="Created with imagetracer.js version 1.2.6" ><path fill="rgb(0,0,0)" stroke="rgb(0,0,0)" stroke-width="1" opacity="0" d="M 0 0 L 500 0 L 500 500 L 0 500 L 0 0 Z M 360 186 L 313 212 Q 304 213 301 210 Q 294 206 291 199 Q 286 191 277 188 L 264 188 Q 262 191 258 190 L 210 218 Q 206 217 207 220 L 201 222 L 201 226 L 211 237 Q 213 236 212 239 L 223 243 L 233 241 L 265 222 L 282 216 L 294 217 L 304 225 Q 303 227 306 226 L 312 235 L 321 241 L 326 241 L 331 239 L 359 222 L 374 215 L 379 214 L 393 215 L 399 219 L 406 229 L 415 237 L 418 238 L 429 237 L 453 222 L 465 216 L 466 214 L 461 207 Q 462 204 459 205 L 457 201 L 449 194 L 440 194 L 411 210 Q 402 211 398 207 L 389 197 Q 384 190 376 186 L 360 186 Z M 270 235 L 270 260 L 269 259 Q 266 260 267 257 Q 264 258 263 255 L 249 255 L 242 259 L 233 270 L 230 283 L 231 294 Q 233 301 238 306 Q 240 305 239 308 L 246 312 L 251 313 L 259 313 L 267 310 L 266 309 L 268 309 L 272 303 L 272 311 L 274 312 L 286 312 L 286 312 L 286 237 L 285 235 L 270 235 Z M 58 255 L 52 259 Q 49 258 50 261 L 48 261 L 48 263 L 47 256 L 35 256 L 33 258 L 34 261 L 34 312 L 35 312 L 49 312 L 49 276 L 51 273 L 57 268 L 64 269 L 66 274 Q 69 275 67 277 L 67 312 L 82 312 L 83 311 L 83 274 L 84 271 Q 87 272 86 269 L 90 268 Q 94 267 96 269 Q 98 268 97 271 L 99 271 L 100 275 L 100 311 L 102 312 L 116 312 L 116 274 L 113 267 Q 114 264 112 265 L 112 264 L 111 262 L 102 255 L 91 255 L 81 262 Q 82 265 80 264 L 77 264 L 78 262 L 70 255 L 58 255 Z M 135 255 Q 133 258 129 257 L 124 261 Q 123 263 126 262 L 125 264 L 126 270 L 135 267 L 140 267 L 139 266 L 141 266 L 145 265 L 145 267 L 149 267 Q 148 270 151 269 L 153 275 Q 137 274 128 281 Q 125 280 126 283 L 123 286 L 124 287 L 122 287 L 120 294 L 120 299 L 123 307 Q 127 312 135 313 L 143 313 L 151 310 Q 153 309 151 308 L 153 308 Q 155 307 154 311 L 156 310 L 155 312 L 168 312 L 168 310 L 168 277 L 167 276 Q 168 269 166 270 L 166 269 L 165 265 L 161 259 L 159 259 L 153 255 L 135 255 Z M 200 255 L 193 259 L 190 263 L 188 264 Q 190 262 189 258 L 188 256 L 175 256 L 176 311 L 176 310 L 177 310 L 176 312 L 191 312 L 191 276 L 192 273 L 198 268 L 207 269 L 210 275 L 210 311 L 212 312 L 226 312 L 226 272 L 222 263 L 213 255 L 200 255 Z M 295 256 L 293 258 L 293 311 L 295 312 L 308 312 L 309 311 L 309 258 L 308 256 L 295 256 Z M 317 256 L 317 312 L 318 312 L 332 312 L 331 310 L 333 310 L 333 277 L 335 274 L 343 269 L 347 269 Q 348 271 349 269 L 348 266 L 349 262 L 348 259 L 349 256 Q 339 255 335 259 L 332 263 L 330 258 L 329 256 L 317 256 Z M 355 256 L 353 258 L 353 277 L 354 278 L 353 282 L 353 311 L 355 312 L 369 312 L 368 310 L 370 310 L 370 286 L 368 284 Q 367 278 370 277 L 370 259 L 369 258 L 369 256 L 355 256 Z " /><path fill="rgb(0,0,0)" stroke="rgb(0,0,0)" stroke-width="1" opacity="0" d="M 252.5 267 L 255.5 268 Q 256.7 265.8 261.5 267 L 268 271.5 L 270 275.5 L 270 292.5 L 265.5 298 Q 262.6 301.6 254.5 300 L 249 295.5 L 246 288.5 L 246 279.5 L 245 278.5 L 247 278.5 L 248 274.5 L 247.5 273 L 249 273.5 Q 247.9 270.2 250.5 271 Q 254.2 269 252.5 267 Z " /><path fill="rgb(0,0,0)" stroke="rgb(0,0,0)" stroke-width="1" opacity="0" d="M 150.5 284 L 154 285.5 L 153 290.5 L 153 292.5 L 151 296.5 L 151.5 298 L 149 298 Q 150.3 301 146.5 300 L 141.5 302 L 136 298.5 L 135 292.5 Q 139.2 290.3 137.5 288 Q 143.4 285 153 285.5 Q 149.7 285.6 150.5 284 Z " /><path fill="rgb(0,0,0)" stroke="rgb(0,0,0)" stroke-width="1" opacity="0" d="M 368.5 288 L 369 294.5 L 368 294.5 L 368.5 288 Z " /><path fill="rgb(195,193,176)" stroke="rgb(195,193,176)" stroke-width="1" opacity="0.1450980392156863" d="M 359.5 186 L 375.5 186 Q 383.9 189.6 389 196.5 L 397.5 207 Q 401.6 210.9 410.5 210 L 439.5 194 L 448.5 194 L 457 200.5 L 459 205 Q 461.7 203.9 461 206.5 L 466 213.5 L 465 216 L 452.5 222 L 428.5 237 L 417.5 238 L 414.5 237 L 406 228.5 L 398.5 219 L 392.5 215 L 378.5 214 L 373.5 215 L 358.5 222 L 330.5 239 L 325.5 241 L 320.5 241 L 312 234.5 L 305.5 226 Q 303.3 226.8 304 224.5 L 293.5 217 L 281.5 216 L 264.5 222 L 232.5 241 L 222.5 243 L 212 239 Q 213.1 236.3 210.5 237 L 201 225.5 L 201 222 L 207 220 Q 205.8 217 209.5 218 L 257.5 190 Q 262.1 190.6 263.5 188 L 276.5 188 Q 285.8 191.2 291 198.5 Q 294 206 300.5 210 Q 304.2 213.3 312.5 212 L 359.5 186 Z M 363 187 L 351 192 L 315 213 Q 304 215 300 211 L 290 200 Q 285 191 274 189 L 268 189 L 257 192 L 206 222 L 203 222 L 202 225 L 210 235 L 220 241 L 232 240 L 272 217 L 284 214 Q 296 215 303 221 L 313 234 L 320 239 L 327 239 L 332 237 L 363 218 L 372 214 L 383 212 L 394 214 L 400 218 L 407 228 Q 411 234 419 237 L 424 237 L 433 233 L 464 214 L 464 212 L 455 201 L 447 195 L 439 196 Q 427 205 412 211 Q 402 212 398 209 L 388 198 L 377 188 L 363 187 Z " /><path fill="rgb(195,193,176)" stroke="rgb(195,193,176)" stroke-width="1" opacity="0.1450980392156863" d="M 270.5 235 L 271 255.5 L 270 255.5 L 270.5 235 Z " /><path fill="rgb(195,193,176)" stroke="rgb(195,193,176)" stroke-width="1" opacity="0.1450980392156863" d="M 284.5 235 L 286 236.5 L 286 312 L 273.5 312 L 272 310.5 L 273.5 311 L 284.5 311 L 285 310.5 L 285 236.5 L 284.5 235 Z " /><path fill="rgb(195,193,176)" stroke="rgb(195,193,176)" stroke-width="1" opacity="0.1450980392156863" d="M 57.5 255 L 62 255.5 Q 51.5 256.5 47.5 264 L 48 262.5 L 48 261 L 50 261 Q 48.9 258.3 51.5 259 L 57.5 255 Z " /><path fill="rgb(195,193,176)" stroke="rgb(195,193,176)" stroke-width="1" opacity="0.1450980392156863" d="M 65.5 255 L 69.5 255 L 74 258.5 L 72.5 258 Q 70.8 255.2 65.5 256 L 65.5 255 Z " /><path fill="rgb(195,193,176)" stroke="rgb(195,193,176)" stroke-width="1" opacity="0.1450980392156863" d="M 90.5 255 L 97 255.5 L 90.5 256 L 82 261.5 L 81.5 263 L 81 261.5 L 90.5 255 Z " /><path fill="rgb(195,193,176)" stroke="rgb(195,193,176)" stroke-width="1" opacity="0.1450980392156863" d="M 98.5 255 Q 105.1 254.4 107 258.5 L 105.5 258 L 98.5 256 L 98.5 255 Z " /><path fill="rgb(195,193,176)" stroke="rgb(195,193,176)" stroke-width="1" opacity="0.1450980392156863" d="M 134.5 255 L 141 255.5 L 132.5 257 L 132.5 256 L 134.5 255 Z " /><path fill="rgb(195,193,176)" stroke="rgb(195,193,176)" stroke-width="1" opacity="0.1450980392156863" d="M 147.5 255 Q 155.5 254 158 258.5 L 156.5 258 Q 153.8 255.2 147.5 256 L 147.5 255 Z " /><path fill="rgb(195,193,176)" stroke="rgb(195,193,176)" stroke-width="1" opacity="0.1450980392156863" d="M 199.5 255 L 204 255.5 Q 197.5 255.5 194.5 259 L 195.5 257 L 199.5 255 Z " /><path fill="rgb(195,193,176)" stroke="rgb(195,193,176)" stroke-width="1" opacity="0.1450980392156863" d="M 206.5 255 L 212.5 255 L 222 262.5 L 217.5 259 L 211.5 256 L 206.5 256 L 206.5 255 Z " /><path fill="rgb(195,193,176)" stroke="rgb(195,193,176)" stroke-width="1" opacity="0.1450980392156863" d="M 248.5 255 L 254 255.5 Q 246.7 255.2 243.5 259 L 244.5 257 L 248.5 255 Z " /><path fill="rgb(195,193,176)" stroke="rgb(195,193,176)" stroke-width="1" opacity="0.1450980392156863" d="M 258.5 255 Q 263 254 264 256.5 L 262.5 257 L 258.5 256 L 258.5 255 Z " /><path fill="rgb(195,193,176)" stroke="rgb(195,193,176)" stroke-width="1" opacity="0.1450980392156863" d="M 34.5 256 L 46.5 256 L 47 257.5 L 45.5 257 L 34.5 257 L 34 259.5 L 33 259.5 L 34.5 256 Z " /><path fill="rgb(195,193,176)" stroke="rgb(195,193,176)" stroke-width="1" opacity="0.1450980392156863" d="M 175 256 L 187.5 256 L 189 257.5 L 189.5 263 L 192.5 259 L 191 261.5 L 189.5 264 Q 186.5 262.4 188 257 L 176.5 257 L 176 257.5 L 176 311 L 183 311.5 L 176.5 312 L 175 310.5 L 175 256 Z " /><path fill="rgb(195,193,176)" stroke="rgb(195,193,176)" stroke-width="1" opacity="0.1450980392156863" d="M 294.5 256 L 307.5 256 L 309 257.5 L 309 310.5 L 307.5 312 L 294.5 312 L 293 310.5 L 293 257.5 L 294.5 256 Z M 294 257 L 294 311 L 295 311 L 308 311 L 308 258 L 308 257 L 294 257 Z " /><path fill="rgb(195,193,176)" stroke="rgb(195,193,176)" stroke-width="1" opacity="0.1450980392156863" d="M 317.5 256 L 328.5 256 L 330 257.5 L 328.5 257 L 317.5 257 L 317.5 256 Z " /><path fill="rgb(195,193,176)" stroke="rgb(195,193,176)" stroke-width="1" opacity="0.1450980392156863" d="M 340.5 256 L 349 256.5 Q 340.7 255.7 336.5 259 L 337.5 257 L 340.5 256 Z " /><path fill="rgb(195,193,176)" stroke="rgb(195,193,176)" stroke-width="1" opacity="0.1450980392156863" d="M 354.5 256 L 368.5 256 L 369 257.5 L 370 258.5 L 370 276.5 L 369 276.5 L 369 258.5 L 367.5 257 L 354 257 L 354 276.5 L 353 276.5 L 353 257.5 L 354.5 256 Z " /><path fill="rgb(195,193,176)" stroke="rgb(195,193,176)" stroke-width="1" opacity="0.1450980392156863" d="M 128.5 257 L 131 257.5 L 127.5 259 L 128.5 257 Z " /><path fill="rgb(195,193,176)" stroke="rgb(195,193,176)" stroke-width="1" opacity="0.1450980392156863" d="M 265.5 257 Q 267.8 256.3 267 258.5 L 265.5 257 Z " /><path fill="rgb(195,193,176)" stroke="rgb(195,193,176)" stroke-width="1" opacity="0.1450980392156863" d="M 270.5 257 L 271 261.5 L 268 259.5 L 270 259.5 L 270.5 257 Z " /><path fill="rgb(195,193,176)" stroke="rgb(195,193,176)" stroke-width="1" opacity="0.1450980392156863" d="M 75.5 259 L 80 264.5 L 78 265 L 75.5 259 Z " /><path fill="rgb(195,193,176)" stroke="rgb(195,193,176)" stroke-width="1" opacity="0.1450980392156863" d="M 108.5 259 L 112 263.5 L 110 262.5 L 108.5 259 Z " /><path fill="rgb(195,193,176)" stroke="rgb(195,193,176)" stroke-width="1" opacity="0.1450980392156863" d="M 125.5 259 L 125 260.5 L 124.5 262 L 124 260.5 L 125.5 259 Z " /><path fill="rgb(195,193,176)" stroke="rgb(195,193,176)" stroke-width="1" opacity="0.1450980392156863" d="M 159.5 259 Q 161.8 258.3 161 260.5 L 165 265.5 L 164 265.5 L 159.5 259 Z " /><path fill="rgb(195,193,176)" stroke="rgb(195,193,176)" stroke-width="1" opacity="0.1450980392156863" d="M 241.5 259 L 237 264.5 L 233.5 270 L 234 268.5 L 241.5 259 Z " /><path fill="rgb(195,193,176)" stroke="rgb(195,193,176)" stroke-width="1" opacity="0.1450980392156863" d="M 330.5 259 L 332 263.5 L 330.5 266 L 330.5 259 Z " /><path fill="rgb(195,193,176)" stroke="rgb(195,193,176)" stroke-width="1" opacity="0.1450980392156863" d="M 334.5 259 L 332.5 262 L 334.5 259 Z " /><path fill="rgb(195,193,176)" stroke="rgb(195,193,176)" stroke-width="1" opacity="0.1450980392156863" d="M 34.5 261 L 35 310.5 L 36 311.5 L 34 312 L 34.5 261 Z " /><path fill="rgb(195,193,176)" stroke="rgb(195,193,176)" stroke-width="1" opacity="0.1450980392156863" d="M 222.5 264 L 224 266.5 L 222 265.5 L 222.5 264 Z " /><path fill="rgb(195,193,176)" stroke="rgb(195,193,176)" stroke-width="1" opacity="0.1450980392156863" d="M 112.5 265 L 114 268.5 L 113 268.5 L 112.5 265 Z " /><path fill="rgb(195,193,176)" stroke="rgb(195,193,176)" stroke-width="1" opacity="0.1450980392156863" d="M 137.5 266 L 140 266.5 L 137.5 267 L 137.5 266 Z " /><path fill="rgb(195,193,176)" stroke="rgb(195,193,176)" stroke-width="1" opacity="0.1450980392156863" d="M 144.5 266 L 147 266.5 L 144.5 267 L 144.5 266 Z " /><path fill="rgb(195,193,176)" stroke="rgb(195,193,176)" stroke-width="1" opacity="0.1450980392156863" d="M 348.5 266 L 349 268.5 L 347 269.5 L 348.5 266 Z " /><path fill="rgb(195,193,176)" stroke="rgb(195,193,176)" stroke-width="1" opacity="0.1450980392156863" d="M 56.5 267 Q 61.8 265.8 63 268.5 L 61.5 268 Q 52.9 266.9 51 272.5 L 49.5 275 L 50 273.5 L 52.5 269 L 56.5 267 Z " /><path fill="rgb(195,193,176)" stroke="rgb(195,193,176)" stroke-width="1" opacity="0.1450980392156863" d="M 89.5 267 Q 98.1 265.9 100 271.5 L 99.5 274 L 99 271 L 97 271 Q 98.1 268.3 95.5 269 Q 94.3 266.8 89.5 268 L 87.5 269 L 87.5 268 L 89.5 267 Z " /><path fill="rgb(195,193,176)" stroke="rgb(195,193,176)" stroke-width="1" opacity="0.1450980392156863" d="M 126.5 267 L 127 269 L 129 269.5 L 126 270 L 126.5 267 Z " /><path fill="rgb(195,193,176)" stroke="rgb(195,193,176)" stroke-width="1" opacity="0.1450980392156863" d="M 131.5 267 L 134 267.5 L 130.5 269 L 131.5 267 Z " /><path fill="rgb(195,193,176)" stroke="rgb(195,193,176)" stroke-width="1" opacity="0.1450980392156863" d="M 149.5 267 L 150.5 269 Q 147.7 269.7 149.5 267 Z " /><path fill="rgb(195,193,176)" stroke="rgb(195,193,176)" stroke-width="1" opacity="0.1450980392156863" d="M 198.5 267 Q 207.8 265.6 210 271.5 L 211 274.5 L 211 311 L 224.5 311 L 225.5 310 L 226 312 L 211.5 312 L 210 310.5 L 210 274.5 L 206.5 269 L 198.5 268 L 198.5 267 Z " /><path fill="rgb(195,193,176)" stroke="rgb(195,193,176)" stroke-width="1" opacity="0.1450980392156863" d="M 253.5 267 L 256 267.5 L 250.5 271 L 253.5 267 Z " /><path fill="rgb(195,193,176)" stroke="rgb(195,193,176)" stroke-width="1" opacity="0.1450980392156863" d="M 262.5 267 L 269 271.5 L 270 274.5 L 269 274.5 L 265.5 269 Q 261.8 268.8 262.5 267 Z " /><path fill="rgb(195,193,176)" stroke="rgb(195,193,176)" stroke-width="1" opacity="0.1450980392156863" d="M 196.5 268 L 194.5 271 L 192.5 272 L 193.5 270 L 196.5 268 Z " /><path fill="rgb(195,193,176)" stroke="rgb(195,193,176)" stroke-width="1" opacity="0.1450980392156863" d="M 224.5 268 L 226 275.5 L 225 275.5 L 224.5 268 Z " /><path fill="rgb(195,193,176)" stroke="rgb(195,193,176)" stroke-width="1" opacity="0.1450980392156863" d="M 64.5 269 L 67 273.5 L 66 273.5 L 64.5 269 Z " /><path fill="rgb(195,193,176)" stroke="rgb(195,193,176)" stroke-width="1" opacity="0.1450980392156863" d="M 85.5 269 L 86 271 L 84 270.5 L 85.5 269 Z " /><path fill="rgb(195,193,176)" stroke="rgb(195,193,176)" stroke-width="1" opacity="0.1450980392156863" d="M 339.5 269 L 342 269.5 L 338.5 271 L 339.5 269 Z " /><path fill="rgb(195,193,176)" stroke="rgb(195,193,176)" stroke-width="1" opacity="0.1450980392156863" d="M 114.5 270 L 116 273.5 L 116 311.5 L 115 311.5 L 115 273.5 L 114.5 270 Z " /><path fill="rgb(195,193,176)" stroke="rgb(195,193,176)" stroke-width="1" opacity="0.1450980392156863" d="M 151.5 270 L 153 273.5 L 152 273.5 L 151.5 270 Z " /><path fill="rgb(195,193,176)" stroke="rgb(195,193,176)" stroke-width="1" opacity="0.1450980392156863" d="M 166.5 270 L 167 273.5 L 166 273.5 L 166.5 270 Z " /><path fill="rgb(195,193,176)" stroke="rgb(195,193,176)" stroke-width="1" opacity="0.1450980392156863" d="M 336.5 271 L 335 273.5 L 333 276.5 L 332.5 310 L 332 276.5 L 336.5 271 Z " /><path fill="rgb(195,193,176)" stroke="rgb(195,193,176)" stroke-width="1" opacity="0.1450980392156863" d="M 83.5 272 L 83 273.5 L 83 310.5 L 81.5 312 L 82 310.5 L 82 273.5 L 83.5 272 Z " /><path fill="rgb(195,193,176)" stroke="rgb(195,193,176)" stroke-width="1" opacity="0.1450980392156863" d="M 248.5 272 L 249 273.5 L 247 274.5 L 248.5 272 Z " /><path fill="rgb(195,193,176)" stroke="rgb(195,193,176)" stroke-width="1" opacity="0.1450980392156863" d="M 191.5 273 L 192 274.5 L 191 275.5 L 191 312 L 184 311.5 L 190 311 L 190 275.5 L 191.5 273 Z " /><path fill="rgb(195,193,176)" stroke="rgb(195,193,176)" stroke-width="1" opacity="0.1450980392156863" d="M 100.5 275 L 101 310.5 L 102 311.5 L 100 310.5 L 100.5 275 Z " /><path fill="rgb(195,193,176)" stroke="rgb(195,193,176)" stroke-width="1" opacity="0.1450980392156863" d="M 143.5 275 L 153 275.5 L 143.5 276 L 143.5 275 Z " /><path fill="rgb(195,193,176)" stroke="rgb(195,193,176)" stroke-width="1" opacity="0.1450980392156863" d="M 231.5 275 L 232 277.5 L 231 277.5 L 231.5 275 Z " /><path fill="rgb(195,193,176)" stroke="rgb(195,193,176)" stroke-width="1" opacity="0.1450980392156863" d="M 48.5 276 L 49 311.5 L 48 311.5 L 48.5 276 Z " /><path fill="rgb(195,193,176)" stroke="rgb(195,193,176)" stroke-width="1" opacity="0.1450980392156863" d="M 67.5 276 L 68 311.5 L 67 311.5 L 67.5 276 Z " /><path fill="rgb(195,193,176)" stroke="rgb(195,193,176)" stroke-width="1" opacity="0.1450980392156863" d="M 138.5 276 L 141 276.5 L 138.5 277 L 138.5 276 Z " /><path fill="rgb(195,193,176)" stroke="rgb(195,193,176)" stroke-width="1" opacity="0.1450980392156863" d="M 167.5 276 L 168 306.5 L 167 306.5 L 167.5 276 Z " /><path fill="rgb(195,193,176)" stroke="rgb(195,193,176)" stroke-width="1" opacity="0.1450980392156863" d="M 246.5 276 L 247 278.5 L 246 279.5 L 245.5 288 L 245 279.5 L 246.5 276 Z " /><path fill="rgb(195,193,176)" stroke="rgb(195,193,176)" stroke-width="1" opacity="0.1450980392156863" d="M 270.5 277 L 271 282.5 L 270 282.5 L 270.5 277 Z " /><path fill="rgb(195,193,176)" stroke="rgb(195,193,176)" stroke-width="1" opacity="0.1450980392156863" d="M 131.5 278 L 133 278.5 L 123.5 286 L 126 282.5 Q 125.3 280.3 127.5 281 L 131.5 278 Z " /><path fill="rgb(195,193,176)" stroke="rgb(195,193,176)" stroke-width="1" opacity="0.1450980392156863" d="M 353.5 281 L 354 311 L 367.5 311 L 369 309.5 L 369.5 285 L 370 309.5 L 369 312 L 354.5 312 L 353 310.5 L 353.5 281 Z " /><path fill="rgb(195,193,176)" stroke="rgb(195,193,176)" stroke-width="1" opacity="0.1450980392156863" d="M 230.5 282 L 231 285.5 L 230 285.5 L 230.5 282 Z " /><path fill="rgb(195,193,176)" stroke="rgb(195,193,176)" stroke-width="1" opacity="0.1450980392156863" d="M 270.5 284 L 271 288.5 L 270 288.5 L 270.5 284 Z " /><path fill="rgb(195,193,176)" stroke="rgb(195,193,176)" stroke-width="1" opacity="0.1450980392156863" d="M 145.5 285 L 153 285.5 L 145.5 286 L 145.5 285 Z " /><path fill="rgb(195,193,176)" stroke="rgb(195,193,176)" stroke-width="1" opacity="0.1450980392156863" d="M 140.5 286 L 143 286.5 L 138.5 288 L 138.5 287 L 140.5 286 Z " /><path fill="rgb(195,193,176)" stroke="rgb(195,193,176)" stroke-width="1" opacity="0.1450980392156863" d="M 122.5 287 L 123 288.5 L 121.5 291 L 121 289.5 L 122.5 287 Z " /><path fill="rgb(195,193,176)" stroke="rgb(195,193,176)" stroke-width="1" opacity="0.1450980392156863" d="M 136.5 289 L 138 289.5 L 135 291.5 L 136.5 289 Z " /><path fill="rgb(195,193,176)" stroke="rgb(195,193,176)" stroke-width="1" opacity="0.1450980392156863" d="M 246.5 289 Q 247.7 295.8 252.5 299 L 254 299.5 L 252.5 300 Q 246.5 296.5 246.5 289 Z " /><path fill="rgb(195,193,176)" stroke="rgb(195,193,176)" stroke-width="1" opacity="0.1450980392156863" d="M 231.5 291 L 233 296.5 L 232 296.5 L 231.5 291 Z " /><path fill="rgb(195,193,176)" stroke="rgb(195,193,176)" stroke-width="1" opacity="0.1450980392156863" d="M 120.5 293 L 121 298.5 L 120 298.5 L 120.5 293 Z " /><path fill="rgb(195,193,176)" stroke="rgb(195,193,176)" stroke-width="1" opacity="0.1450980392156863" d="M 269.5 293 L 269 294.5 L 265.5 299 L 263.5 300 L 264.5 298 L 268 295.5 L 269.5 293 Z " /><path fill="rgb(195,193,176)" stroke="rgb(195,193,176)" stroke-width="1" opacity="0.1450980392156863" d="M 152.5 294 L 153 295.5 L 151 296.5 L 152.5 294 Z " /><path fill="rgb(195,193,176)" stroke="rgb(195,193,176)" stroke-width="1" opacity="0.1450980392156863" d="M 135.5 297 L 138 300.5 L 135 298.5 L 135.5 297 Z " /><path fill="rgb(195,193,176)" stroke="rgb(195,193,176)" stroke-width="1" opacity="0.1450980392156863" d="M 149 298 L 151 298.5 Q 149.3 301.8 144.5 302 L 144.5 301 L 149 300 L 149 298 Z " /><path fill="rgb(195,193,176)" stroke="rgb(195,193,176)" stroke-width="1" opacity="0.1450980392156863" d="M 233.5 298 L 238 305.5 L 236 304.5 L 233 299.5 L 233.5 298 Z " /><path fill="rgb(195,193,176)" stroke="rgb(195,193,176)" stroke-width="1" opacity="0.1450980392156863" d="M 255.5 300 L 262 300.5 L 255.5 301 L 255.5 300 Z " /><path fill="rgb(195,193,176)" stroke="rgb(195,193,176)" stroke-width="1" opacity="0.1450980392156863" d="M 121.5 301 L 123 303.5 L 121 302.5 L 121.5 301 Z " /><path fill="rgb(195,193,176)" stroke="rgb(195,193,176)" stroke-width="1" opacity="0.1450980392156863" d="M 123.5 305 L 126.5 309 L 131 311.5 L 129.5 311 L 123 306.5 L 123.5 305 Z " /><path fill="rgb(195,193,176)" stroke="rgb(195,193,176)" stroke-width="1" opacity="0.1450980392156863" d="M 270.5 305 L 266.5 310 L 264.5 311 L 265.5 309 L 270.5 305 Z " /><path fill="rgb(195,193,176)" stroke="rgb(195,193,176)" stroke-width="1" opacity="0.1450980392156863" d="M 153.5 306 L 155 311 L 166 311.5 L 155.5 312 L 154 308 L 149.5 310 L 149.5 309 L 153.5 306 Z " /><path fill="rgb(195,193,176)" stroke="rgb(195,193,176)" stroke-width="1" opacity="0.1450980392156863" d="M 239.5 306 L 240 308 L 248 311.5 L 245.5 312 L 239 307.5 L 239.5 306 Z " /><path fill="rgb(195,193,176)" stroke="rgb(195,193,176)" stroke-width="1" opacity="0.1450980392156863" d="M 147.5 310 L 146.5 312 L 145 311.5 L 147.5 310 Z " /><path fill="rgb(195,193,176)" stroke="rgb(195,193,176)" stroke-width="1" opacity="0.1450980392156863" d="M 317.5 310 L 318.5 311 L 332 311.5 L 317 312 L 317.5 310 Z " /><path fill="rgb(195,193,176)" stroke="rgb(195,193,176)" stroke-width="1" opacity="0.1450980392156863" d="M 134.5 312 L 143 312.5 L 134.5 313 L 134.5 312 Z " /><path fill="rgb(195,193,176)" stroke="rgb(195,193,176)" stroke-width="1" opacity="0.1450980392156863" d="M 250.5 312 L 259 312.5 L 250.5 313 L 250.5 312 Z " /><path fill="rgb(105,104,80)" stroke="rgb(105,104,80)" stroke-width="1" opacity="0.9529411764705882" d="M 362.5 187 L 376.5 188 L 388 197.5 L 397.5 209 Q 402.2 212.3 411.5 211 Q 426.5 205 438.5 196 L 446.5 195 L 455 200.5 L 464 211.5 L 464 213.5 L 432.5 233 L 423.5 237 L 418.5 237 Q 411 234 407 227.5 L 399.5 218 L 393.5 214 L 382.5 212 L 371.5 214 L 362.5 218 L 331.5 237 L 326.5 239 L 319.5 239 L 313 233.5 L 302.5 221 Q 296 214.5 283.5 214 L 271.5 217 L 231.5 240 L 219.5 241 L 210 234.5 L 202 224.5 L 203 222 L 205.5 222 L 256.5 192 L 267.5 189 L 273.5 189 Q 285.1 190.9 290 199.5 L 299.5 211 Q 304.2 214.8 314.5 213 L 350.5 192 L 362.5 187 Z " /><path fill="rgb(105,104,80)" stroke="rgb(105,104,80)" stroke-width="1" opacity="0.9529411764705882" d="M 271 235 L 283.5 235 L 285 236.5 L 285 310.5 L 284.5 311 L 273.5 311 L 272 309.5 L 271.5 303 L 267.5 308 Q 262.2 314.2 248.5 312 L 240 308 Q 241.1 305.3 238.5 306 L 233 297.5 L 231 290.5 L 231 278.5 L 233 270.5 L 242.5 259 L 248.5 256 L 257.5 255 L 264.5 257 L 270.5 262 L 271 257.5 L 271 255.5 L 271 235 Z M 252 267 L 245 279 Q 244 290 248 296 L 256 301 Q 263 302 266 299 L 270 294 L 271 285 L 271 283 L 271 278 L 269 272 L 264 267 L 252 267 Z " /><path fill="rgb(105,104,80)" stroke="rgb(105,104,80)" stroke-width="1" opacity="0.9529411764705882" d="M 62.5 255 L 69.5 256 L 77 261.5 L 78.5 265 L 82 262.5 L 83.5 260 L 90.5 256 Q 96 257.5 97.5 255 Q 105.8 256.2 110 261.5 L 115 273.5 L 115 312 L 102.5 312 L 101 310.5 L 101 275.5 L 100 271.5 L 96.5 268 L 89.5 267 L 83 271.5 L 82 273.5 L 82 310.5 L 80.5 312 L 68 312 L 68 275.5 L 64.5 269 Q 62.5 266 56.5 267 L 51 270.5 L 48 276.5 L 48 312 L 36.5 312 L 35 310.5 L 35 261.5 L 34 257 L 45.5 257 L 47 258.5 L 47.5 264 Q 52.1 256.6 62.5 255 Z " /><path fill="rgb(105,104,80)" stroke="rgb(105,104,80)" stroke-width="1" opacity="0.9529411764705882" d="M 141.5 255 L 152.5 256 Q 159.9 258.6 164 264.5 L 167 274.5 L 167 306.5 L 168 309.5 L 166.5 312 L 165.5 311 L 156.5 311 L 155 309.5 L 153.5 306 L 151 307 L 150.5 309 L 149 308.5 Q 149.8 310.8 147.5 310 L 144.5 312 L 131.5 312 L 124 306.5 Q 119.5 302 121 291.5 Q 123.3 284.8 128.5 281 L 133.5 278 L 141.5 276 L 153 276 L 153 271.5 L 149.5 267 L 144.5 265 L 141.5 266 L 139.5 265 L 128.5 269 L 125 263.5 L 125 261.5 L 126.5 259 L 141.5 255 Z M 151 284 L 139 287 Q 133 289 135 299 L 140 302 L 149 301 Q 153 299 153 293 L 153 291 L 154 286 L 151 284 Z " /><path fill="rgb(105,104,80)" stroke="rgb(105,104,80)" stroke-width="1" opacity="0.9529411764705882" d="M 204.5 255 L 211.5 256 Q 218.3 258.3 222 263.5 L 226 276.5 L 226 309.5 L 224.5 311 L 211 311 L 211 274.5 L 206.5 268 L 198.5 267 L 192 271.5 L 190 275.5 L 190 311 L 183.5 312 L 177 311 L 176 308.5 L 176 257 L 188 257 L 188 263.5 L 189.5 264 L 193.5 259 L 204.5 255 Z " /><path fill="rgb(105,104,80)" stroke="rgb(105,104,80)" stroke-width="1" opacity="0.9529411764705882" d="M 294 257 L 307.5 257 L 308 257.5 L 308 311 L 294.5 311 L 294 310.5 L 294 257 Z " /><path fill="rgb(105,104,80)" stroke="rgb(105,104,80)" stroke-width="1" opacity="0.9529411764705882" d="M 317 257 L 328.5 257 L 330 258.5 L 330.5 266 L 335.5 259 Q 339.9 255.9 348.5 257 L 349 259.5 L 348 269 L 339.5 269 L 334 273.5 L 332 276.5 L 332 308.5 L 331 309.5 L 331.5 311 L 318.5 311 L 317 309.5 L 317 257 Z " /><path fill="rgb(105,104,80)" stroke="rgb(105,104,80)" stroke-width="1" opacity="0.9529411764705882" d="M 354 257 L 367.5 257 L 369 258.5 L 369 270.5 L 368 271.5 Q 370.5 273 369 278.5 L 368 283.5 L 369 287.5 Q 366.5 289 368 294.5 L 369 295.5 L 369 308.5 L 368 311 L 354.5 311 L 354 310.5 L 354 257 Z " /></svg>