<svg width="199" height="200" version="1.1" xmlns="http://www.w3.org/2000/svg" desc="Created with imagetracer.js version 1.2.6" ><path fill="rgb(0,0,0)" stroke="rgb(0,0,0)" stroke-width="1" opacity="0" d="M 0 0 L 199 0 L 199 200 L 0 200 L 0 0 Z M 32 76 Q 30 78 26 77 L 21 80 Q 15 85 13 93 L 13 99 L 17 108 Q 20 112 27 114 L 34 114 L 44 110 Q 45 108 47 111 Q 50 110 49 113 L 53 113 L 55 113 L 58 114 L 65 113 L 68 111 Q 73 109 74 102 L 72 99 Q 67 100 66 97 L 60 101 L 54 101 Q 50 100 51 94 Q 49 92 52 91 Q 54 92 53 89 Q 60 87 62 91 Q 70 91 74 87 L 76 89 Q 77 93 75 95 L 76 99 L 75 101 L 76 104 L 75 108 L 76 110 L 75 111 L 79 114 Q 80 112 85 113 L 87 111 L 88 100 L 91 108 L 97 112 L 102 113 L 105 114 L 112 113 L 116 111 L 122 105 L 124 98 L 124 93 L 121 85 Q 117 79 111 77 Q 102 76 98 78 Q 96 81 95 77 L 69 77 L 67 79 L 59 76 L 49 78 L 45 81 L 39 77 L 32 76 Z M 135 94 L 128 100 Q 126 108 130 111 Q 133 114 140 113 Q 142 108 136 110 L 131 105 L 132 101 Q 134 97 140 97 Q 142 92 135 94 Z M 141 94 L 141 113 L 145 113 L 145 95 L 141 94 Z M 164 94 L 164 113 L 167 113 Q 166 108 169 107 L 171 108 L 170 110 L 171 113 L 174 112 L 183 113 L 186 109 L 179 104 Q 184 104 185 102 L 185 100 L 177 100 Q 174 101 175 106 L 181 108 L 182 110 L 180 109 L 174 110 Q 175 107 172 106 L 174 102 Q 175 99 172 100 L 169 104 L 167 104 L 167 96 L 164 94 Z M 149 96 Q 145 98 149 100 L 148 101 L 148 113 L 151 113 L 151 101 L 151 99 Q 152 95 149 96 Z M 158 100 L 155 101 L 153 106 L 155 112 L 163 113 Q 165 109 160 110 Q 157 110 157 106 Q 158 102 163 103 Q 165 98 158 100 Z M 63 116 L 63 126 L 72 126 L 73 125 Q 74 120 72 119 L 73 117 L 63 116 Z M 77 117 L 74 122 L 75 124 Q 81 126 80 122 L 76 122 L 80 119 L 77 117 Z M 50 118 L 50 120 L 54 121 L 55 118 Q 52 117 53 120 L 52 120 Q 53 117 50 118 Z M 57 118 L 58 121 Q 60 122 59 119 L 57 118 Z M 82 118 L 81 124 L 83 123 L 85 124 L 87 124 L 89 123 L 92 124 Q 95 125 96 123 Q 97 119 95 118 Q 90 116 91 120 L 90 120 Q 91 117 88 118 L 87 121 L 86 120 L 83 118 L 83 120 L 82 118 Z M 99 118 L 99 124 L 99 121 Q 101 119 99 118 Z M 103 118 L 101 123 L 103 124 L 103 118 Z M 105 118 L 104 122 L 105 122 L 105 118 Z M 108 118 L 109 121 L 108 120 L 107 123 L 109 122 Q 111 121 110 124 L 111 124 L 110 121 Q 111 117 108 118 Z M 121 118 L 121 121 L 120 120 L 119 123 L 121 122 Q 123 121 122 124 L 123 124 L 121 118 Z M 112 119 L 113 123 L 114 120 L 112 119 Z M 114 123 L 114 124 L 117 124 L 114 123 Z " /><path fill="rgb(0,0,0)" stroke="rgb(0,0,0)" stroke-width="1" opacity="0" d="M 30.5 88 Q 36.1 88.5 38 92.5 L 37 95.5 L 37 97.5 L 34.5 101 Q 26.5 102.5 25 97.5 Q 24 91 27.5 89 L 30.5 88 Z " /><path fill="rgb(0,0,0)" stroke="rgb(0,0,0)" stroke-width="1" opacity="0" d="M 102.5 89 Q 109.5 87.5 111 91.5 L 112 96.5 L 108.5 101 L 104.5 102 L 99 97.5 Q 98.1 90.6 102.5 89 Z " /><path fill="rgb(183,59,67)" stroke="rgb(183,59,67)" stroke-width="1" opacity="0.6274509803921569" d="M 27.5 77 L 36 77.5 L 27.5 78 L 27.5 77 Z " /><path fill="rgb(183,59,67)" stroke="rgb(183,59,67)" stroke-width="1" opacity="0.6274509803921569" d="M 53.5 77 L 62 77.5 L 53.5 78 L 53.5 77 Z " /><path fill="rgb(183,59,67)" stroke="rgb(183,59,67)" stroke-width="1" opacity="0.6274509803921569" d="M 69.5 77 L 93 77.5 L 69.5 78 L 69.5 77 Z " /><path fill="rgb(183,59,67)" stroke="rgb(183,59,67)" stroke-width="1" opacity="0.6274509803921569" d="M 102.5 77 L 109 77.5 L 102.5 78 L 102.5 77 Z " /><path fill="rgb(183,59,67)" stroke="rgb(183,59,67)" stroke-width="1" opacity="0.6274509803921569" d="M 24.5 78 L 26 78.5 L 23.5 80 L 24.5 78 Z " /><path fill="rgb(183,59,67)" stroke="rgb(183,59,67)" stroke-width="1" opacity="0.6274509803921569" d="M 38.5 78 L 42 80.5 L 39.5 79 L 38.5 78 Z " /><path fill="rgb(183,59,67)" stroke="rgb(183,59,67)" stroke-width="1" opacity="0.6274509803921569" d="M 49.5 78 L 51 78.5 L 46 81.5 L 48 84.5 L 47.5 86 L 49 86.5 L 48.5 88 Q 50.8 87.3 50 89.5 L 52.5 88 L 59.5 87 L 64.5 90 L 66.5 89 L 66.5 90 L 63.5 91 L 59.5 88 L 54.5 88 L 50.5 91 L 48 90 L 46 85.5 L 46.5 84 L 43 81.5 Q 45.2 83.2 47.5 79 L 49.5 78 Z " /><path fill="rgb(183,59,67)" stroke="rgb(183,59,67)" stroke-width="1" opacity="0.6274509803921569" d="M 94.5 78 L 95 85.5 L 94 88 Q 90.2 87 89 89.5 L 88.5 91 L 88 89.5 L 89.5 87 L 86 86.5 L 94 86 L 94.5 78 Z " /><path fill="rgb(183,59,67)" stroke="rgb(183,59,67)" stroke-width="1" opacity="0.6274509803921569" d="M 110.5 78 L 114 79.5 L 112.5 80 L 110.5 78 Z " /><path fill="rgb(183,59,67)" stroke="rgb(183,59,67)" stroke-width="1" opacity="0.6274509803921569" d="M 68.5 79 L 74.5 86 L 77 87.5 L 77 110.5 L 78.5 111 L 78.5 112 L 76 110.5 L 76 87.5 L 74.5 87 L 67 80.5 L 68.5 79 Z " /><path fill="rgb(183,59,67)" stroke="rgb(183,59,67)" stroke-width="1" opacity="0.6274509803921569" d="M 97.5 79 L 97 80.5 L 96.5 86 L 96 80.5 L 97.5 79 Z " /><path fill="rgb(183,59,67)" stroke="rgb(183,59,67)" stroke-width="1" opacity="0.6274509803921569" d="M 21.5 80 L 17 85.5 L 14.5 93 L 14 90.5 Q 15.8 83.3 21.5 80 Z " /><path fill="rgb(183,59,67)" stroke="rgb(183,59,67)" stroke-width="1" opacity="0.6274509803921569" d="M 115.5 80 L 119.5 85 L 115.5 80 Z " /><path fill="rgb(183,59,67)" stroke="rgb(183,59,67)" stroke-width="1" opacity="0.6274509803921569" d="M 29.5 87 L 34 87.5 L 29.5 88 L 29.5 87 Z " /><path fill="rgb(183,59,67)" stroke="rgb(183,59,67)" stroke-width="1" opacity="0.6274509803921569" d="M 70.5 87 L 72 87.5 L 68.5 89 L 68.5 88 L 70.5 87 Z " /><path fill="rgb(183,59,67)" stroke="rgb(183,59,67)" stroke-width="1" opacity="0.6274509803921569" d="M 104.5 87 Q 110.7 86.3 112 90.5 L 113 94.5 L 112 94.5 L 109.5 89 L 104.5 88 L 104.5 87 Z " /><path fill="rgb(183,59,67)" stroke="rgb(183,59,67)" stroke-width="1" opacity="0.6274509803921569" d="M 26.5 88 L 28 88.5 L 26 89 L 24.5 92 L 25 90.5 L 26.5 88 Z " /><path fill="rgb(183,59,67)" stroke="rgb(183,59,67)" stroke-width="1" opacity="0.6274509803921569" d="M 35.5 88 L 39 92.5 L 38 92.5 L 35.5 88 Z " /><path fill="rgb(183,59,67)" stroke="rgb(183,59,67)" stroke-width="1" opacity="0.6274509803921569" d="M 85.5 88 L 86 112 L 83 111.5 L 85 111 L 85.5 88 Z " /><path fill="rgb(183,59,67)" stroke="rgb(183,59,67)" stroke-width="1" opacity="0.6274509803921569" d="M 101.5 88 L 99 91.5 L 98.5 93 L 98 91.5 L 101.5 88 Z " /><path fill="rgb(183,59,67)" stroke="rgb(183,59,67)" stroke-width="1" opacity="0.6274509803921569" d="M 122.5 90 L 123 92.5 L 122 92.5 L 122.5 90 Z " /><path fill="rgb(183,59,67)" stroke="rgb(183,59,67)" stroke-width="1" opacity="0.6274509803921569" d="M 49.5 93 L 50 96.5 L 49 96.5 L 49.5 93 Z " /><path fill="rgb(183,59,67)" stroke="rgb(183,59,67)" stroke-width="1" opacity="0.6274509803921569" d="M 87.5 93 L 88 96.5 L 87 96.5 L 87.5 93 Z " /><path fill="rgb(183,59,67)" stroke="rgb(183,59,67)" stroke-width="1" opacity="0.6274509803921569" d="M 122.5 94 L 123 99.5 L 122 99.5 L 122.5 94 Z " /><path fill="rgb(183,59,67)" stroke="rgb(183,59,67)" stroke-width="1" opacity="0.6274509803921569" d="M 14.5 97 L 15 99.5 L 14 99.5 L 14.5 97 Z " /><path fill="rgb(183,59,67)" stroke="rgb(183,59,67)" stroke-width="1" opacity="0.6274509803921569" d="M 24.5 97 L 27.5 101 L 29 101.5 L 27.5 102 L 24 98.5 L 24.5 97 Z " /><path fill="rgb(183,59,67)" stroke="rgb(183,59,67)" stroke-width="1" opacity="0.6274509803921569" d="M 63.5 98 L 66 98.5 L 60.5 102 L 63.5 98 Z " /><path fill="rgb(183,59,67)" stroke="rgb(183,59,67)" stroke-width="1" opacity="0.6274509803921569" d="M 98.5 98 L 101.5 102 L 98.5 98 Z " /><path fill="rgb(183,59,67)" stroke="rgb(183,59,67)" stroke-width="1" opacity="0.6274509803921569" d="M 37.5 99 L 35.5 102 L 34 101.5 L 37.5 99 Z " /><path fill="rgb(183,59,67)" stroke="rgb(183,59,67)" stroke-width="1" opacity="0.6274509803921569" d="M 67.5 99 L 73 101.5 Q 72.4 107.9 67.5 110 L 65.5 111 L 66.5 109 L 71 105.5 L 72 101 Q 66.8 101.3 67.5 99 Z " /><path fill="rgb(183,59,67)" stroke="rgb(183,59,67)" stroke-width="1" opacity="0.6274509803921569" d="M 111.5 99 L 109.5 102 L 103.5 103 L 103.5 102 Q 109.9 102.9 111.5 99 Z " /><path fill="rgb(183,59,67)" stroke="rgb(183,59,67)" stroke-width="1" opacity="0.6274509803921569" d="M 15.5 101 L 22 109.5 L 16 104.5 L 15.5 101 Z " /><path fill="rgb(183,59,67)" stroke="rgb(183,59,67)" stroke-width="1" opacity="0.6274509803921569" d="M 121.5 101 L 122 102.5 L 120 103.5 L 121.5 101 Z " /><path fill="rgb(183,59,67)" stroke="rgb(183,59,67)" stroke-width="1" opacity="0.6274509803921569" d="M 55.5 102 L 58 102.5 L 55.5 103 L 55.5 102 Z " /><path fill="rgb(183,59,67)" stroke="rgb(183,59,67)" stroke-width="1" opacity="0.6274509803921569" d="M 89.5 102 L 92 105.5 L 89 103.5 L 89.5 102 Z " /><path fill="rgb(183,59,67)" stroke="rgb(183,59,67)" stroke-width="1" opacity="0.6274509803921569" d="M 119.5 105 L 115.5 110 L 119.5 105 Z " /><path fill="rgb(183,59,67)" stroke="rgb(183,59,67)" stroke-width="1" opacity="0.6274509803921569" d="M 150.5 106 L 151 110.5 L 150 110.5 L 150.5 106 Z " /><path fill="rgb(183,59,67)" stroke="rgb(183,59,67)" stroke-width="1" opacity="0.6274509803921569" d="M 44.5 107 L 52 111.5 L 50.5 112 L 44.5 108 L 37.5 112 L 37.5 111 L 44.5 107 Z " /><path fill="rgb(183,59,67)" stroke="rgb(183,59,67)" stroke-width="1" opacity="0.6274509803921569" d="M 94.5 108 L 100 111.5 L 98.5 112 L 94.5 108 Z " /><path fill="rgb(183,59,67)" stroke="rgb(183,59,67)" stroke-width="1" opacity="0.6274509803921569" d="M 29.5 112 L 35 112.5 L 29.5 113 L 29.5 112 Z " /><path fill="rgb(183,59,67)" stroke="rgb(183,59,67)" stroke-width="1" opacity="0.6274509803921569" d="M 54.5 112 L 60 112.5 L 54.5 113 L 54.5 112 Z " /><path fill="rgb(183,59,67)" stroke="rgb(183,59,67)" stroke-width="1" opacity="0.6274509803921569" d="M 102.5 112 L 108 112.5 L 102.5 113 L 102.5 112 Z " /><path fill="rgb(220,39,51)" stroke="rgb(220,39,51)" stroke-width="1" opacity="0.996078431372549" d="M 26.5 78 L 37.5 78 L 46 84.5 L 49 90.5 Q 48.1 98.1 51 101 L 57.5 103 L 63.5 99 L 66.5 99 L 72 101 Q 71.9 106.6 67.5 109 Q 63 113.5 52.5 112 L 44.5 107 L 36.5 112 L 27.5 112 Q 20.3 110.2 17 104.5 Q 14 100.5 14 93.5 Q 15.8 84.3 22.5 80 L 26.5 78 Z M 30 87 L 27 88 Q 23 91 24 99 L 31 103 L 36 102 Q 40 100 39 92 Q 37 86 30 87 Z " /><path fill="rgb(220,39,51)" stroke="rgb(220,39,51)" stroke-width="1" opacity="0.996078431372549" d="M 51.5 78 L 62.5 78 L 72 85.5 Q 72.8 87.8 70.5 87 L 63.5 90 L 59.5 87 L 54.5 87 L 50.5 90 L 46 81.5 L 51.5 78 Z " /><path fill="rgb(220,39,51)" stroke="rgb(220,39,51)" stroke-width="1" opacity="0.996078431372549" d="M 68.5 78 L 93.5 78 L 94 78.5 L 94 86 L 86.5 86 L 86 87.5 L 85 88.5 L 85 111 L 79.5 112 L 77 111 L 77 87.5 L 75.5 86 L 71 82.5 L 68.5 78 Z " /><path fill="rgb(220,39,51)" stroke="rgb(220,39,51)" stroke-width="1" opacity="0.996078431372549" d="M 100.5 78 L 109.5 78 Q 116.7 79.8 120 85.5 L 123 93.5 Q 120.5 95 122 100.5 L 120 104.5 L 114.5 110 Q 109.8 113.3 100.5 112 L 92 106.5 Q 86.8 102.2 88 91.5 L 90.5 88 Q 96.6 89.3 96 86.5 Q 98.3 85.3 97 80.5 L 98.5 79 L 100.5 78 Z M 105 87 L 102 88 Q 96 90 98 99 L 104 103 L 110 102 L 113 98 L 112 91 Q 111 86 105 87 Z " /><path fill="rgb(220,39,51)" stroke="rgb(220,39,51)" stroke-width="1" opacity="0.996078431372549" d="M 65 121 L 71 121.5 L 70 124 L 64 123.5 L 65 121 Z " /><path fill="rgb(130,46,51)" stroke="rgb(130,46,51)" stroke-width="1" opacity="0.09019607843137255" d="M 31.5 76 L 34 76.5 L 31.5 77 L 31.5 76 Z " /><path fill="rgb(130,46,51)" stroke="rgb(130,46,51)" stroke-width="1" opacity="0.09019607843137255" d="M 36.5 77 L 39 77.5 L 36.5 78 L 36.5 77 Z " /><path fill="rgb(130,46,51)" stroke="rgb(130,46,51)" stroke-width="1" opacity="0.09019607843137255" d="M 62.5 77 L 66.5 79 L 69 77.5 L 68 80 L 62.5 78 L 62.5 77 Z " /><path fill="rgb(130,46,51)" stroke="rgb(130,46,51)" stroke-width="1" opacity="0.09019607843137255" d="M 93.5 77 L 96.5 79 L 98.5 78 L 98.5 79 L 96 80.5 Q 97.5 86.5 94.5 88 L 94 86.5 L 95 85.5 L 95 78 L 93.5 77 Z " /><path fill="rgb(130,46,51)" stroke="rgb(130,46,51)" stroke-width="1" opacity="0.09019607843137255" d="M 40.5 78 L 42.5 81 L 40.5 78 Z " /><path fill="rgb(130,46,51)" stroke="rgb(130,46,51)" stroke-width="1" opacity="0.09019607843137255" d="M 112.5 78 L 115 79.5 L 113.5 79 L 112.5 78 Z " /><path fill="rgb(130,46,51)" stroke="rgb(130,46,51)" stroke-width="1" opacity="0.09019607843137255" d="M 46.5 79 L 44.5 82 L 46.5 79 Z " /><path fill="rgb(130,46,51)" stroke="rgb(130,46,51)" stroke-width="1" opacity="0.09019607843137255" d="M 20.5 80 L 18.5 83 L 20.5 80 Z " /><path fill="rgb(130,46,51)" stroke="rgb(130,46,51)" stroke-width="1" opacity="0.09019607843137255" d="M 116.5 80 Q 121.5 83 123 89.5 L 122 89.5 L 116.5 80 Z " /><path fill="rgb(130,46,51)" stroke="rgb(130,46,51)" stroke-width="1" opacity="0.09019607843137255" d="M 46.5 84 L 47.5 86 L 46.5 84 Z " /><path fill="rgb(130,46,51)" stroke="rgb(130,46,51)" stroke-width="1" opacity="0.09019607843137255" d="M 72.5 85 Q 75.5 86.5 72.5 88 L 72.5 85 Z " /><path fill="rgb(130,46,51)" stroke="rgb(130,46,51)" stroke-width="1" opacity="0.09019607843137255" d="M 86.5 87 L 87.5 89 L 88 87 L 90 87.5 L 88 89.5 L 87 96.5 L 88 99.5 L 87 100.5 L 86.5 111 L 86.5 87 Z " /><path fill="rgb(130,46,51)" stroke="rgb(130,46,51)" stroke-width="1" opacity="0.09019607843137255" d="M 32.5 88 Q 37.5 87.5 38 91.5 L 34.5 89 Q 31.5 89.5 32.5 88 Z " /><path fill="rgb(130,46,51)" stroke="rgb(130,46,51)" stroke-width="1" opacity="0.09019607843137255" d="M 54.5 88 Q 61 87 63 90.5 L 61.5 91 Q 60.2 87.8 54.5 89 L 54.5 88 Z " /><path fill="rgb(130,46,51)" stroke="rgb(130,46,51)" stroke-width="1" opacity="0.09019607843137255" d="M 102.5 88 L 108 88.5 Q 101.7 87.7 100 91.5 L 99 97.5 L 104 101.5 L 102.5 102 L 98 97.5 L 98 93.5 L 102.5 88 Z " /><path fill="rgb(130,46,51)" stroke="rgb(130,46,51)" stroke-width="1" opacity="0.09019607843137255" d="M 52.5 89 L 53 91 L 50 92.5 L 51 97.5 L 50 97.5 L 49 90.5 Q 50.8 92.1 52.5 89 Z " /><path fill="rgb(130,46,51)" stroke="rgb(130,46,51)" stroke-width="1" opacity="0.09019607843137255" d="M 109.5 89 L 110.5 91 L 109.5 89 Z " /><path fill="rgb(130,46,51)" stroke="rgb(130,46,51)" stroke-width="1" opacity="0.09019607843137255" d="M 25.5 91 L 25 92.5 L 24.5 97 L 24 92.5 L 25.5 91 Z " /><path fill="rgb(130,46,51)" stroke="rgb(130,46,51)" stroke-width="1" opacity="0.09019607843137255" d="M 13.5 92 L 14 98.5 L 13 98.5 L 13.5 92 Z " /><path fill="rgb(130,46,51)" stroke="rgb(130,46,51)" stroke-width="1" opacity="0.09019607843137255" d="M 123.5 92 L 124 97.5 L 123 97.5 L 123.5 92 Z " /><path fill="rgb(130,46,51)" stroke="rgb(130,46,51)" stroke-width="1" opacity="0.09019607843137255" d="M 38.5 93 L 39 96 L 37 95.5 L 38.5 93 Z " /><path fill="rgb(130,46,51)" stroke="rgb(130,46,51)" stroke-width="1" opacity="0.09019607843137255" d="M 75.5 94 L 76 97.5 L 75 97.5 L 75.5 94 Z " /><path fill="rgb(130,46,51)" stroke="rgb(130,46,51)" stroke-width="1" opacity="0.09019607843137255" d="M 141.5 94 L 142 112.5 L 141 112.5 L 141.5 94 Z " /><path fill="rgb(130,46,51)" stroke="rgb(130,46,51)" stroke-width="1" opacity="0.09019607843137255" d="M 144.5 94 L 145 112.5 L 144 112.5 L 144.5 94 Z " /><path fill="rgb(130,46,51)" stroke="rgb(130,46,51)" stroke-width="1" opacity="0.09019607843137255" d="M 37.5 97 L 38 98.5 L 35 100.5 L 37.5 97 Z " /><path fill="rgb(130,46,51)" stroke="rgb(130,46,51)" stroke-width="1" opacity="0.09019607843137255" d="M 64.5 97 L 68 98.5 L 66.5 99 L 64.5 97 Z " /><path fill="rgb(130,46,51)" stroke="rgb(130,46,51)" stroke-width="1" opacity="0.09019607843137255" d="M 111.5 97 L 112 98.5 L 109 100.5 L 111.5 97 Z " /><path fill="rgb(130,46,51)" stroke="rgb(130,46,51)" stroke-width="1" opacity="0.09019607843137255" d="M 25.5 98 L 27.5 101 L 25.5 98 Z " /><path fill="rgb(130,46,51)" stroke="rgb(130,46,51)" stroke-width="1" opacity="0.09019607843137255" d="M 62.5 98 L 59.5 102 L 54 101.5 Q 60.8 102.3 62.5 98 Z " /><path fill="rgb(130,46,51)" stroke="rgb(130,46,51)" stroke-width="1" opacity="0.09019607843137255" d="M 129.5 98 L 129 99.5 L 128.5 101 L 128 99.5 L 129.5 98 Z " /><path fill="rgb(130,46,51)" stroke="rgb(130,46,51)" stroke-width="1" opacity="0.09019607843137255" d="M 51.5 99 L 52.5 101 L 51.5 99 Z " /><path fill="rgb(130,46,51)" stroke="rgb(130,46,51)" stroke-width="1" opacity="0.09019607843137255" d="M 69.5 99 Q 73.5 98.5 74 101.5 L 73.5 103 L 71.5 100 Q 68.5 100.5 69.5 99 Z " /><path fill="rgb(130,46,51)" stroke="rgb(130,46,51)" stroke-width="1" opacity="0.09019607843137255" d="M 75.5 100 L 76 102.5 L 75 102.5 L 75.5 100 Z " /><path fill="rgb(130,46,51)" stroke="rgb(130,46,51)" stroke-width="1" opacity="0.09019607843137255" d="M 29.5 101 L 34 101.5 L 29.5 102 L 29.5 101 Z " /><path fill="rgb(130,46,51)" stroke="rgb(130,46,51)" stroke-width="1" opacity="0.09019607843137255" d="M 15.5 103 L 21.5 110 L 34 113.5 L 26.5 114 Q 20 112.5 17 107.5 L 15.5 103 Z " /><path fill="rgb(130,46,51)" stroke="rgb(130,46,51)" stroke-width="1" opacity="0.09019607843137255" d="M 121.5 103 L 122 104.5 Q 118.3 111.8 108.5 113 L 108.5 112 Q 116.8 111.3 120 105.5 L 121.5 103 Z " /><path fill="rgb(130,46,51)" stroke="rgb(130,46,51)" stroke-width="1" opacity="0.09019607843137255" d="M 158.5 103 L 157.5 105 L 158.5 103 Z " /><path fill="rgb(130,46,51)" stroke="rgb(130,46,51)" stroke-width="1" opacity="0.09019607843137255" d="M 178.5 103 L 179.5 105 L 178.5 103 Z " /><path fill="rgb(130,46,51)" stroke="rgb(130,46,51)" stroke-width="1" opacity="0.09019607843137255" d="M 72.5 104 L 73 105.5 L 64.5 113 L 60.5 113 L 60.5 112 Q 68.8 111.3 72 105.5 L 72.5 104 Z " /><path fill="rgb(130,46,51)" stroke="rgb(130,46,51)" stroke-width="1" opacity="0.09019607843137255" d="M 89.5 104 L 96.5 111 L 103 113.5 L 101.5 113 L 96.5 112 L 91 107.5 L 89.5 104 Z " /><path fill="rgb(130,46,51)" stroke="rgb(130,46,51)" stroke-width="1" opacity="0.09019607843137255" d="M 153.5 105 L 154 107.5 L 153 107.5 L 153.5 105 Z " /><path fill="rgb(130,46,51)" stroke="rgb(130,46,51)" stroke-width="1" opacity="0.09019607843137255" d="M 132.5 107 L 133.5 109 L 132.5 107 Z " /><path fill="rgb(130,46,51)" stroke="rgb(130,46,51)" stroke-width="1" opacity="0.09019607843137255" d="M 44.5 108 L 48 110.5 L 46.5 111 Q 45 107.5 43.5 110 L 41.5 111 L 42.5 109 L 44.5 108 Z " /><path fill="rgb(130,46,51)" stroke="rgb(130,46,51)" stroke-width="1" opacity="0.09019607843137255" d="M 157.5 108 L 158.5 110 L 157.5 108 Z " /><path fill="rgb(130,46,51)" stroke="rgb(130,46,51)" stroke-width="1" opacity="0.09019607843137255" d="M 173.5 109 L 175 111.5 L 174 111.5 L 173.5 109 Z " /><path fill="rgb(130,46,51)" stroke="rgb(130,46,51)" stroke-width="1" opacity="0.09019607843137255" d="M 75.5 110 L 77.5 112 L 85 112.5 L 78.5 114 L 75.5 110 Z " /><path fill="rgb(130,46,51)" stroke="rgb(130,46,51)" stroke-width="1" opacity="0.09019607843137255" d="M 130.5 110 L 135 112.5 L 133.5 113 L 130.5 110 Z " /><path fill="rgb(130,46,51)" stroke="rgb(130,46,51)" stroke-width="1" opacity="0.09019607843137255" d="M 49.5 111 L 54 112 L 53.5 114 L 49 113 L 49.5 111 Z " /><path fill="rgb(130,46,51)" stroke="rgb(130,46,51)" stroke-width="1" opacity="0.09019607843137255" d="M 155.5 111 L 159 112.5 L 157.5 113 L 155.5 111 Z " /><path fill="rgb(130,46,51)" stroke="rgb(130,46,51)" stroke-width="1" opacity="0.09019607843137255" d="M 35.5 112 L 38 112.5 L 35.5 113 L 35.5 112 Z " /><path fill="rgb(130,46,51)" stroke="rgb(130,46,51)" stroke-width="1" opacity="0.09019607843137255" d="M 65.5 118 L 67.5 118 L 71 120.5 L 66.5 121 L 65.5 118 Z " /><path fill="rgb(130,46,51)" stroke="rgb(130,46,51)" stroke-width="1" opacity="0.09019607843137255" d="M 72.5 119 L 73 124.5 L 72 124.5 L 72.5 119 Z " /><path fill="rgb(130,46,51)" stroke="rgb(130,46,51)" stroke-width="1" opacity="0.09019607843137255" d="M 77.5 119 L 79 119.5 L 76.5 121 L 77.5 119 Z " /><path fill="rgb(130,46,51)" stroke="rgb(130,46,51)" stroke-width="1" opacity="0.09019607843137255" d="M 90.5 120 L 91 122.5 L 90 122.5 L 90.5 120 Z " /><path fill="rgb(130,46,51)" stroke="rgb(130,46,51)" stroke-width="1" opacity="0.09019607843137255" d="M 77.5 122 L 80 122.5 L 77.5 123 L 77.5 122 Z " /><path fill="rgb(74,21,22)" stroke="rgb(74,21,22)" stroke-width="1" opacity="0.7372549019607844" d="M 136.5 94 L 140 95.5 Q 140.9 98.9 135.5 97 L 131 101.5 L 131 105.5 L 133.5 109 L 140 111.5 Q 139.3 113.8 135.5 113 L 129 108.5 L 128 101.5 L 131.5 96 L 136.5 94 Z " /><path fill="rgb(74,21,22)" stroke="rgb(74,21,22)" stroke-width="1" opacity="0.7372549019607844" d="M 142 94 L 144 94.5 L 144 113 L 142 112.5 L 142 94 Z " /><path fill="rgb(74,21,22)" stroke="rgb(74,21,22)" stroke-width="1" opacity="0.7372549019607844" d="M 164 94 L 167 95.5 L 167.5 105 L 171.5 100 Q 174.8 98.9 174 101.5 L 171 105.5 L 173 106 L 174 108.5 L 174 110.5 L 172.5 113 Q 169.1 113.9 171 108.5 L 167 107 L 166 109.5 L 167 111.5 L 164 113 L 164 94 Z " /><path fill="rgb(74,21,22)" stroke="rgb(74,21,22)" stroke-width="1" opacity="0.7372549019607844" d="M 148 96 L 151 97.5 Q 151.7 100.5 148 99 L 148 96 Z " /><path fill="rgb(74,21,22)" stroke="rgb(74,21,22)" stroke-width="1" opacity="0.7372549019607844" d="M 148 100 Q 153.3 98.2 151 105.5 L 150 110.5 Q 152.3 111.8 149.5 113 L 148 112.5 L 148 100 Z " /><path fill="rgb(74,21,22)" stroke="rgb(74,21,22)" stroke-width="1" opacity="0.7372549019607844" d="M 158.5 100 Q 163.9 98.1 163 101.5 L 157 104.5 L 156 106.5 L 158.5 110 Q 162.3 109.3 163 111.5 L 159.5 113 L 155 111 Q 153.4 108.9 154 103.5 L 158.5 100 Z " /><path fill="rgb(74,21,22)" stroke="rgb(74,21,22)" stroke-width="1" opacity="0.7372549019607844" d="M 176.5 100 L 184.5 100 L 185 101.5 Q 183.8 104.3 178.5 103 L 177 102.5 Q 176.3 104.8 178.5 104 L 185 107.5 Q 185.8 112.3 182.5 113 L 175 113 L 175 110 L 181.5 110 L 182 108 L 175 105.5 Q 174 101 176.5 100 Z " /><path fill="rgb(74,21,22)" stroke="rgb(74,21,22)" stroke-width="1" opacity="0.7372549019607844" d="M 63 116 L 72 116 L 72 126 L 63 126 L 63 116 Z M 65 118 L 66 121 L 64 124 L 70 124 L 71 121 Q 70 117 65 118 Z " /><path fill="rgb(74,21,22)" stroke="rgb(74,21,22)" stroke-width="1" opacity="0.7372549019607844" d="M 50 118 Q 52.7 116.9 52 119.5 L 53 119.5 Q 52.3 116.9 55 118 L 54 120.5 L 55 122.5 L 54 122.5 Q 54.8 119.9 51.5 121 L 50 118 Z " /><path fill="rgb(74,21,22)" stroke="rgb(74,21,22)" stroke-width="1" opacity="0.7372549019607844" d="M 56.5 118 L 58.5 119 L 60 118.5 L 59 121 L 56 119.5 L 56.5 118 Z " /><path fill="rgb(74,21,22)" stroke="rgb(74,21,22)" stroke-width="1" opacity="0.7372549019607844" d="M 75 118 L 80 118.5 L 76 120.5 L 77.5 123 L 80 123.5 L 75 124 L 74 120.5 L 75 118 Z " /><path fill="rgb(74,21,22)" stroke="rgb(74,21,22)" stroke-width="1" opacity="0.7372549019607844" d="M 81.5 118 L 82 123.5 L 81 123.5 L 81.5 118 Z " /><path fill="rgb(74,21,22)" stroke="rgb(74,21,22)" stroke-width="1" opacity="0.7372549019607844" d="M 83 118 L 86 119.5 L 86.5 121 L 88 118 Q 92 116.6 90 123.5 L 89 123.5 L 88.5 122 L 86 123.5 L 85.5 122 L 85 124 L 83 124 L 83 118 Z " /><path fill="rgb(74,21,22)" stroke="rgb(74,21,22)" stroke-width="1" opacity="0.7372549019607844" d="M 91 118 Q 94.8 117 96 119.5 Q 96.8 123.3 94.5 124 L 91 124 L 91 118 Z " /><path fill="rgb(74,21,22)" stroke="rgb(74,21,22)" stroke-width="1" opacity="0.7372549019607844" d="M 98.5 118 L 102 120.5 L 102.5 118 L 103 123.5 L 101 122.5 L 99.5 120 L 98.5 124 L 98.5 118 Z " /><path fill="rgb(74,21,22)" stroke="rgb(74,21,22)" stroke-width="1" opacity="0.7372549019607844" d="M 104.5 118 L 105 121.5 L 104 121.5 L 104.5 118 Z " /><path fill="rgb(74,21,22)" stroke="rgb(74,21,22)" stroke-width="1" opacity="0.7372549019607844" d="M 108 118 Q 111 116.8 110 120.5 L 111 123.5 L 110 123.5 Q 110.8 121.3 108.5 122 L 106 123.5 L 108 118 Z " /><path fill="rgb(74,21,22)" stroke="rgb(74,21,22)" stroke-width="1" opacity="0.7372549019607844" d="M 114.5 118 L 116 118.5 L 113 120.5 Q 111.7 124.7 116.5 123 L 116.5 124 Q 112.8 124.8 112 122.5 Q 110.5 118.1 113.5 119 L 114.5 118 Z " /><path fill="rgb(74,21,22)" stroke="rgb(74,21,22)" stroke-width="1" opacity="0.7372549019607844" d="M 120.5 118 L 123 123.5 L 122 123.5 Q 122.8 121.3 120.5 122 L 118 123.5 L 120.5 118 Z " /></svg>