<svg width="500" height="500" version="1.1" xmlns="http://www.w3.org/2000/svg" desc="Created with imagetracer.js version 1.2.6" ><path fill="rgb(98,98,98)" stroke="rgb(98,98,98)" stroke-width="1" opacity="0.1803921568627451" d="M 25 166 L 28 166.5 L 25.5 168 L 25 166 Z " /><path fill="rgb(98,98,98)" stroke="rgb(98,98,98)" stroke-width="1" opacity="0.1803921568627451" d="M 82.5 166 L 83 169.5 L 82 169.5 L 82.5 166 Z " /><path fill="rgb(98,98,98)" stroke="rgb(98,98,98)" stroke-width="1" opacity="0.1803921568627451" d="M 82.5 173 L 83 175 L 35 174.5 L 81.5 174 L 82.5 173 Z " /><path fill="rgb(98,98,98)" stroke="rgb(98,98,98)" stroke-width="1" opacity="0.1803921568627451" d="M 33.5 176 L 33 177.5 L 33 224.5 L 32.5 225 L 25.5 225 L 25.5 224 Q 31.8 224.8 32 223.5 L 32 177.5 L 33.5 176 Z " /><path fill="rgb(98,98,98)" stroke="rgb(98,98,98)" stroke-width="1" opacity="0.1803921568627451" d="M 46.5 181 L 62 181.5 L 46.5 182 L 46.5 181 Z " /><path fill="rgb(98,98,98)" stroke="rgb(98,98,98)" stroke-width="1" opacity="0.1803921568627451" d="M 86.5 181 L 101 181.5 L 86.5 182 L 86.5 181 Z " /><path fill="rgb(98,98,98)" stroke="rgb(98,98,98)" stroke-width="1" opacity="0.1803921568627451" d="M 171.5 181 L 173 181.5 L 170.5 183 L 171.5 181 Z " /><path fill="rgb(98,98,98)" stroke="rgb(98,98,98)" stroke-width="1" opacity="0.1803921568627451" d="M 174.5 181 L 177 181.5 L 174.5 182 L 174.5 181 Z " /><path fill="rgb(98,98,98)" stroke="rgb(98,98,98)" stroke-width="1" opacity="0.1803921568627451" d="M 283.5 181 L 286 182.5 L 285.5 254 L 285 182 L 283.5 181 Z " /><path fill="rgb(98,98,98)" stroke="rgb(98,98,98)" stroke-width="1" opacity="0.1803921568627451" d="M 303.5 181 L 327.5 181 L 329 182.5 L 328.5 184 L 328 182 L 303.5 182 L 303.5 181 Z " /><path fill="rgb(98,98,98)" stroke="rgb(98,98,98)" stroke-width="1" opacity="0.1803921568627451" d="M 343.5 181 L 342 183.5 L 341.5 255 L 341 182 L 343.5 181 Z " /><path fill="rgb(98,98,98)" stroke="rgb(98,98,98)" stroke-width="1" opacity="0.1803921568627451" d="M 43.5 182 L 45 182.5 L 42 184.5 L 42 294.5 L 44.5 297 L 114 297 L 114 268 L 72.5 268 L 71 266.5 L 71.5 182 L 72 267 L 113.5 267 L 115 268.5 L 115 298 L 44.5 298 L 42 297 L 41 294.5 L 41 184.5 L 43.5 182 Z " /><path fill="rgb(98,98,98)" stroke="rgb(98,98,98)" stroke-width="1" opacity="0.1803921568627451" d="M 153.5 182 L 157 183.5 L 158 185.5 L 158 253.5 L 156 254.5 L 157 253.5 L 157 185.5 L 156 183 Q 152.7 183.8 153.5 182 Z " /><path fill="rgb(98,98,98)" stroke="rgb(98,98,98)" stroke-width="1" opacity="0.1803921568627451" d="M 446.5 182 L 455 182.5 L 446.5 183 L 446.5 182 Z " /><path fill="rgb(98,98,98)" stroke="rgb(98,98,98)" stroke-width="1" opacity="0.1803921568627451" d="M 456.5 182 L 458 182.5 L 458 212 L 386.5 212 L 386 212.5 L 386 224.5 L 385 224.5 L 385 212.5 L 386.5 211 L 457 211 L 457 183.5 L 456.5 182 Z " /><path fill="rgb(98,98,98)" stroke="rgb(98,98,98)" stroke-width="1" opacity="0.1803921568627451" d="M 84.5 184 L 85 190.5 L 84 190.5 L 84.5 184 Z " /><path fill="rgb(98,98,98)" stroke="rgb(98,98,98)" stroke-width="1" opacity="0.1803921568627451" d="M 328.5 187 L 329 203.5 L 328 203.5 L 328.5 187 Z " /><path fill="rgb(98,98,98)" stroke="rgb(98,98,98)" stroke-width="1" opacity="0.1803921568627451" d="M 84.5 194 L 85 203.5 L 84 203.5 L 84.5 194 Z " /><path fill="rgb(98,98,98)" stroke="rgb(98,98,98)" stroke-width="1" opacity="0.1803921568627451" d="M 84.5 210 L 85.5 211 L 126.5 211 L 128 212.5 L 127.5 255 L 127 212 L 85.5 212 L 84.5 210 Z " /><path fill="rgb(98,98,98)" stroke="rgb(98,98,98)" stroke-width="1" opacity="0.1803921568627451" d="M 170.5 211 L 255.5 211 L 256 211.5 L 256 224.5 L 255 224.5 L 255 212.5 L 254.5 212 L 170.5 212 L 170.5 211 Z " /><path fill="rgb(98,98,98)" stroke="rgb(98,98,98)" stroke-width="1" opacity="0.1803921568627451" d="M 328.5 224 L 329 298 L 299.5 298 L 298 296.5 L 298.5 295 L 299 297 L 328 297 L 328.5 224 Z " /><path fill="rgb(98,98,98)" stroke="rgb(98,98,98)" stroke-width="1" opacity="0.1803921568627451" d="M 114.5 225 L 115 254.5 L 114 254.5 L 114.5 225 Z " /><path fill="rgb(98,98,98)" stroke="rgb(98,98,98)" stroke-width="1" opacity="0.1803921568627451" d="M 457.5 225 L 458 296.5 L 456.5 298 L 341 298 L 341 267 L 412.5 267 L 413 266.5 L 413 255.5 L 414 255.5 L 414 266.5 L 412.5 268 L 342 268 L 342 297 L 457 297 L 457.5 225 Z " /><path fill="rgb(98,98,98)" stroke="rgb(98,98,98)" stroke-width="1" opacity="0.1803921568627451" d="M 84.5 230 L 85 247.5 L 84 247.5 L 84.5 230 Z " /><path fill="rgb(98,98,98)" stroke="rgb(98,98,98)" stroke-width="1" opacity="0.1803921568627451" d="M 93 233 L 106 233 L 106 245.5 L 105 245.5 L 105 234 L 94 234 L 93.5 246 L 93 233 Z " /><path fill="rgb(98,98,98)" stroke="rgb(98,98,98)" stroke-width="1" opacity="0.1803921568627451" d="M 242.5 255 L 258.5 270 L 260 270 L 262 273.5 L 243.5 256 L 242.5 255 Z " /><path fill="rgb(98,98,98)" stroke="rgb(98,98,98)" stroke-width="1" opacity="0.1803921568627451" d="M 200.5 256 L 213.5 270 L 200.5 256 Z " /><path fill="rgb(98,98,98)" stroke="rgb(98,98,98)" stroke-width="1" opacity="0.1803921568627451" d="M 468.5 258 L 475 258.5 L 468 259 L 468 306.5 L 465.5 309 L 417 308.5 L 466 308 L 467 305.5 L 467 259.5 L 468.5 258 Z " /><path fill="rgb(98,98,98)" stroke="rgb(98,98,98)" stroke-width="1" opacity="0.1803921568627451" d="M 127 267 L 156.5 267 L 158 268.5 L 158 332.5 L 156.5 333 L 157 331.5 L 157 268 L 128 268 L 127.5 333 L 127 267 Z " /><path fill="rgb(98,98,98)" stroke="rgb(98,98,98)" stroke-width="1" opacity="0.1803921568627451" d="M 215.5 271 L 218.5 275 L 215.5 271 Z " /><path fill="rgb(98,98,98)" stroke="rgb(98,98,98)" stroke-width="1" opacity="0.1803921568627451" d="M 264.5 275 L 279.5 291 L 264.5 275 Z " /><path fill="rgb(98,98,98)" stroke="rgb(98,98,98)" stroke-width="1" opacity="0.1803921568627451" d="M 220.5 276 L 224 278.5 L 223.5 280 L 220.5 276 Z " /><path fill="rgb(98,98,98)" stroke="rgb(98,98,98)" stroke-width="1" opacity="0.1803921568627451" d="M 225.5 281 L 229 283.5 L 228.5 285 L 225.5 281 Z " /><path fill="rgb(98,98,98)" stroke="rgb(98,98,98)" stroke-width="1" opacity="0.1803921568627451" d="M 230.5 286 L 234 288.5 L 233.5 290 L 230.5 286 Z " /><path fill="rgb(98,98,98)" stroke="rgb(98,98,98)" stroke-width="1" opacity="0.1803921568627451" d="M 235.5 291 L 239 293.5 L 238.5 295 L 235.5 291 Z " /><path fill="rgb(98,98,98)" stroke="rgb(98,98,98)" stroke-width="1" opacity="0.1803921568627451" d="M 240.5 296 L 242.5 297 L 286 297.5 L 241.5 298 L 240.5 296 Z " /><path fill="rgb(98,98,98)" stroke="rgb(98,98,98)" stroke-width="1" opacity="0.1803921568627451" d="M 170.5 297 L 200 297.5 L 170.5 298 L 170.5 297 Z " /><path fill="rgb(98,98,98)" stroke="rgb(98,98,98)" stroke-width="1" opacity="0.1803921568627451" d="M 417.5 316 L 422 317.5 L 418.5 318 L 417.5 316 Z " /><path fill="rgb(98,98,98)" stroke="rgb(98,98,98)" stroke-width="1" opacity="0.1803921568627451" d="M 427.5 317 L 464 317.5 L 427.5 318 L 427.5 317 Z " /><path fill="rgb(0,0,0)" stroke="rgb(0,0,0)" stroke-width="1" opacity="0" d="M 0 0 L 500 0 L 500 500 L 0 500 L 0 0 Z M 25 166 L 25 225 L 33 225 L 33 225 L 33 178 L 33 176 Q 34 173 36 175 L 83 175 L 83 174 L 82 171 L 83 167 L 82 167 L 29 167 L 25 166 Z M 47 181 L 47 182 L 62 182 L 47 181 Z M 87 181 L 87 182 L 101 182 L 87 181 Z M 175 181 L 175 182 L 177 182 L 175 181 Z M 304 181 L 304 182 L 326 183 L 299 183 L 299 185 L 299 295 L 298 297 L 300 298 L 329 298 L 329 225 L 328 224 L 328 205 L 329 204 L 329 188 L 328 187 L 329 183 L 328 183 L 328 182 L 304 181 Z M 44 182 Q 41 183 43 185 L 41 185 L 41 295 L 42 297 L 45 298 L 115 298 L 115 269 L 114 267 L 73 267 L 71 268 L 72 267 L 72 183 L 71 183 L 46 183 L 44 182 Z M 154 182 L 153 183 L 86 183 L 84 185 Q 83 190 85 192 L 84 195 L 84 204 L 85 205 Q 86 209 84 211 L 86 212 L 127 212 L 128 255 L 129 254 L 156 254 Q 157 256 158 254 L 158 186 L 157 184 L 156 184 L 156 183 L 154 182 Z M 286 182 L 285 183 L 171 183 L 171 211 L 170 212 L 255 212 L 255 225 L 255 225 L 171 225 L 171 297 L 170 298 L 200 298 L 199 297 L 200 296 L 200 258 L 214 270 L 215 269 L 215 272 L 217 271 Q 219 272 217 274 Q 218 276 220 274 Q 222 275 220 277 L 224 280 L 225 279 Q 227 280 225 282 L 229 285 L 230 284 Q 232 285 230 287 L 234 290 L 235 289 Q 237 290 235 292 L 239 295 L 240 294 L 242 298 L 286 298 L 280 291 L 274 284 L 273 285 L 260 272 Q 261 269 259 270 L 250 261 L 249 262 L 243 257 L 244 256 L 241 255 L 286 254 L 286 182 Z M 341 182 L 342 255 L 343 254 L 413 254 L 413 267 L 413 267 L 341 267 L 341 298 L 342 298 L 457 298 L 458 297 L 458 226 L 457 226 L 456 225 L 386 225 L 386 213 L 387 212 L 458 212 L 458 183 L 457 182 L 455 182 L 447 182 L 446 183 L 344 183 L 341 182 Z M 85 225 L 85 227 Q 82 235 84 248 L 84 250 L 85 254 L 114 254 L 115 255 L 115 226 L 114 226 L 113 225 L 85 225 Z M 469 258 L 467 260 L 467 306 L 466 307 L 466 308 L 418 308 L 418 310 Q 420 315 417 317 Q 418 319 422 318 L 425 317 L 428 318 L 464 318 L 465 317 Q 469 316 471 318 L 474 317 L 475 315 L 475 259 Q 475 257 469 258 Z M 127 267 L 127 333 L 158 333 L 158 269 L 157 267 L 127 267 Z " /><path fill="rgb(0,0,0)" stroke="rgb(0,0,0)" stroke-width="1" opacity="0" d="M 94 234 L 105 234 L 105 245.5 L 105.5 247 L 93 246.5 L 94 245.5 L 94 234 Z " /><path fill="rgb(4,4,4)" stroke="rgb(4,4,4)" stroke-width="1" opacity="0.7764705882352941" d="M 26.5 167 L 25.5 169 L 26.5 167 Z " /><path fill="rgb(4,4,4)" stroke="rgb(4,4,4)" stroke-width="1" opacity="0.7764705882352941" d="M 35.5 173 L 82 173.5 L 35.5 174 L 35.5 173 Z " /><path fill="rgb(4,4,4)" stroke="rgb(4,4,4)" stroke-width="1" opacity="0.7764705882352941" d="M 33.5 174 L 33 175.5 L 32.5 177 L 32 175.5 L 33.5 174 Z " /><path fill="rgb(4,4,4)" stroke="rgb(4,4,4)" stroke-width="1" opacity="0.7764705882352941" d="M 326.5 182 L 328 183.5 L 328 297 L 299.5 297 L 299 296.5 L 299 183.5 L 300 183.5 L 300 295.5 L 300.5 296 L 327 296 L 327 183.5 L 326.5 182 Z " /><path fill="rgb(4,4,4)" stroke="rgb(4,4,4)" stroke-width="1" opacity="0.7764705882352941" d="M 43 183 L 45 183.5 L 43 185.5 L 43 294.5 L 44.5 296 L 113 296 L 113 269 L 71.5 269 L 70 267.5 L 70 183.5 L 71 183.5 L 71 268 L 114 268 L 114 297 L 44.5 297 L 42 294.5 L 42 185.5 L 43 183 Z " /><path fill="rgb(4,4,4)" stroke="rgb(4,4,4)" stroke-width="1" opacity="0.7764705882352941" d="M 85.5 183 L 86 210.5 L 85 210.5 L 85.5 183 Z " /><path fill="rgb(4,4,4)" stroke="rgb(4,4,4)" stroke-width="1" opacity="0.7764705882352941" d="M 154.5 183 L 157 185.5 L 157 254 L 155 253.5 L 156 252.5 L 156 185.5 L 154.5 183 Z " /><path fill="rgb(4,4,4)" stroke="rgb(4,4,4)" stroke-width="1" opacity="0.7764705882352941" d="M 342.5 183 L 343 253.5 L 342 253.5 L 342.5 183 Z " /><path fill="rgb(4,4,4)" stroke="rgb(4,4,4)" stroke-width="1" opacity="0.7764705882352941" d="M 456.5 183 L 457 210.5 L 456 210.5 L 456.5 183 Z " /><path fill="rgb(4,4,4)" stroke="rgb(4,4,4)" stroke-width="1" opacity="0.7764705882352941" d="M 127.5 211 L 129 212.5 L 129 253.5 L 128 253.5 L 128 212.5 L 127.5 211 Z " /><path fill="rgb(4,4,4)" stroke="rgb(4,4,4)" stroke-width="1" opacity="0.7764705882352941" d="M 256.5 211 L 257 226 L 171 225.5 L 256 225 L 256.5 211 Z " /><path fill="rgb(4,4,4)" stroke="rgb(4,4,4)" stroke-width="1" opacity="0.7764705882352941" d="M 25.5 223 L 32 223.5 L 25.5 224 L 25.5 223 Z " /><path fill="rgb(4,4,4)" stroke="rgb(4,4,4)" stroke-width="1" opacity="0.7764705882352941" d="M 85 225 L 112.5 225 L 114 226.5 L 113.5 254 L 113 226 L 86 226 L 86 253.5 L 85 253.5 L 85 225 Z " /><path fill="rgb(4,4,4)" stroke="rgb(4,4,4)" stroke-width="1" opacity="0.7764705882352941" d="M 385.5 225 L 455.5 225 L 457 226.5 L 457 297 L 342 297 L 342 268 L 412.5 268 L 414 267.5 L 413.5 269 L 343 269 L 343 296 L 456 296 L 456 226 L 385.5 226 L 385.5 225 Z " /><path fill="rgb(4,4,4)" stroke="rgb(4,4,4)" stroke-width="1" opacity="0.7764705882352941" d="M 92 232 L 107 232 L 107 246.5 L 106 246.5 L 106 233 L 93 233 L 92.5 235 L 92 232 Z " /><path fill="rgb(4,4,4)" stroke="rgb(4,4,4)" stroke-width="1" opacity="0.7764705882352941" d="M 92.5 236 L 93 241.5 L 92 241.5 L 92.5 236 Z " /><path fill="rgb(4,4,4)" stroke="rgb(4,4,4)" stroke-width="1" opacity="0.7764705882352941" d="M 92.5 243 L 93 247 L 105 247.5 L 93.5 248 Q 90.8 246.8 92.5 243 Z " /><path fill="rgb(4,4,4)" stroke="rgb(4,4,4)" stroke-width="1" opacity="0.7764705882352941" d="M 240.5 254 L 246.5 261 L 240.5 254 Z " /><path fill="rgb(4,4,4)" stroke="rgb(4,4,4)" stroke-width="1" opacity="0.7764705882352941" d="M 199 255 L 200.5 255 L 214 268.5 L 200 256.5 L 200 295.5 L 198.5 297 L 171 296.5 L 199 296 L 199 255 Z " /><path fill="rgb(4,4,4)" stroke="rgb(4,4,4)" stroke-width="1" opacity="0.7764705882352941" d="M 468.5 259 L 475 259.5 L 468.5 260 L 468.5 259 Z " /><path fill="rgb(4,4,4)" stroke="rgb(4,4,4)" stroke-width="1" opacity="0.7764705882352941" d="M 248.5 262 L 269 281.5 L 249.5 263 L 248.5 262 Z " /><path fill="rgb(4,4,4)" stroke="rgb(4,4,4)" stroke-width="1" opacity="0.7764705882352941" d="M 128 268 L 157 268 L 157 331.5 L 155.5 333 L 128 333 L 128 268 Z M 129 269 L 129 332 L 156 332 L 156 269 L 129 269 Z " /><path fill="rgb(4,4,4)" stroke="rgb(4,4,4)" stroke-width="1" opacity="0.7764705882352941" d="M 226.5 280 L 229.5 284 L 226.5 280 Z " /><path fill="rgb(4,4,4)" stroke="rgb(4,4,4)" stroke-width="1" opacity="0.7764705882352941" d="M 270.5 283 L 271.5 285 L 270.5 283 Z " /><path fill="rgb(4,4,4)" stroke="rgb(4,4,4)" stroke-width="1" opacity="0.7764705882352941" d="M 231.5 285 L 234.5 289 L 231.5 285 Z " /><path fill="rgb(4,4,4)" stroke="rgb(4,4,4)" stroke-width="1" opacity="0.7764705882352941" d="M 273.5 285 L 284.5 297 L 242.5 297 L 236 290.5 L 242.5 296 L 283 295.5 L 273.5 285 Z " /><path fill="rgb(4,4,4)" stroke="rgb(4,4,4)" stroke-width="1" opacity="0.7764705882352941" d="M 467.5 307 L 465.5 310 L 418 309.5 L 465.5 309 L 467.5 307 Z " /><path fill="rgb(4,4,4)" stroke="rgb(4,4,4)" stroke-width="1" opacity="0.7764705882352941" d="M 474.5 314 L 473.5 316 L 474.5 314 Z " /><path fill="rgb(4,4,4)" stroke="rgb(4,4,4)" stroke-width="1" opacity="0.7764705882352941" d="M 418.5 316 L 472 316.5 L 418.5 317 L 418.5 316 Z " /><path fill="rgb(1,1,1)" stroke="rgb(1,1,1)" stroke-width="1" opacity="0.996078431372549" d="M 28.5 167 L 81 167.5 L 28.5 168 L 28.5 167 Z " /><path fill="rgb(1,1,1)" stroke="rgb(1,1,1)" stroke-width="1" opacity="0.996078431372549" d="M 25.5 170 L 26 222.5 L 25 222.5 L 25.5 170 Z " /><path fill="rgb(1,1,1)" stroke="rgb(1,1,1)" stroke-width="1" opacity="0.996078431372549" d="M 33.5 173 L 31.5 176 L 33.5 173 Z " /><path fill="rgb(1,1,1)" stroke="rgb(1,1,1)" stroke-width="1" opacity="0.996078431372549" d="M 44.5 184 L 44 185.5 L 43.5 193 L 43 185.5 L 44.5 184 Z " /><path fill="rgb(1,1,1)" stroke="rgb(1,1,1)" stroke-width="1" opacity="0.996078431372549" d="M 154.5 184 L 156 185.5 L 156 252.5 L 155 252.5 L 155 185.5 L 154.5 184 Z " /><path fill="rgb(1,1,1)" stroke="rgb(1,1,1)" stroke-width="1" opacity="0.996078431372549" d="M 284.5 184 L 285 252.5 L 284 252.5 L 284.5 184 Z " /><path fill="rgb(1,1,1)" stroke="rgb(1,1,1)" stroke-width="1" opacity="0.996078431372549" d="M 455.5 184 L 456 209.5 L 455 209.5 L 455.5 184 Z " /><path fill="rgb(1,1,1)" stroke="rgb(1,1,1)" stroke-width="1" opacity="0.996078431372549" d="M 343.5 185 L 344 252.5 L 343 252.5 L 343.5 185 Z " /><path fill="rgb(1,1,1)" stroke="rgb(1,1,1)" stroke-width="1" opacity="0.996078431372549" d="M 43.5 195 L 44 293.5 L 43 293.5 L 43.5 195 Z " /><path fill="rgb(1,1,1)" stroke="rgb(1,1,1)" stroke-width="1" opacity="0.996078431372549" d="M 128.5 210 L 130 212.5 L 129 212.5 L 128.5 210 Z " /><path fill="rgb(1,1,1)" stroke="rgb(1,1,1)" stroke-width="1" opacity="0.996078431372549" d="M 256.5 210 L 258 210.5 L 258 225.5 L 255.5 227 L 255.5 226 L 257 225.5 L 257 211.5 L 256.5 210 Z " /><path fill="rgb(1,1,1)" stroke="rgb(1,1,1)" stroke-width="1" opacity="0.996078431372549" d="M 384.5 210 L 385 225.5 L 386 226.5 L 384 225.5 L 384.5 210 Z " /><path fill="rgb(1,1,1)" stroke="rgb(1,1,1)" stroke-width="1" opacity="0.996078431372549" d="M 87.5 226 L 112 226.5 L 87.5 227 L 87.5 226 Z " /><path fill="rgb(1,1,1)" stroke="rgb(1,1,1)" stroke-width="1" opacity="0.996078431372549" d="M 455.5 226 L 456 296 L 343.5 296 L 343 295.5 L 343 269 L 413.5 269 L 414.5 268 L 415 270 L 344 270 L 344 295 L 455 295 L 455.5 226 Z " /><path fill="rgb(1,1,1)" stroke="rgb(1,1,1)" stroke-width="1" opacity="0.996078431372549" d="M 91 231 L 106.5 231 L 108 232.5 L 107.5 248 L 107 232 L 92.5 232 L 91.5 233 L 91 231 Z " /><path fill="rgb(1,1,1)" stroke="rgb(1,1,1)" stroke-width="1" opacity="0.996078431372549" d="M 129.5 233 L 130 251.5 L 129 251.5 L 129.5 233 Z " /><path fill="rgb(1,1,1)" stroke="rgb(1,1,1)" stroke-width="1" opacity="0.996078431372549" d="M 240.5 252 L 242 252.5 L 240 254.5 L 248.5 264 L 239 253.5 L 240.5 252 Z " /><path fill="rgb(1,1,1)" stroke="rgb(1,1,1)" stroke-width="1" opacity="0.996078431372549" d="M 199.5 253 L 200.5 255 L 199 254.5 L 198.5 256 L 198 254.5 L 199.5 253 Z " /><path fill="rgb(1,1,1)" stroke="rgb(1,1,1)" stroke-width="1" opacity="0.996078431372549" d="M 202.5 255 L 204.5 258 L 202.5 255 Z " /><path fill="rgb(1,1,1)" stroke="rgb(1,1,1)" stroke-width="1" opacity="0.996078431372549" d="M 207.5 260 L 209.5 263 L 207.5 260 Z " /><path fill="rgb(1,1,1)" stroke="rgb(1,1,1)" stroke-width="1" opacity="0.996078431372549" d="M 474.5 260 L 475 312.5 L 474 312.5 L 474.5 260 Z " /><path fill="rgb(1,1,1)" stroke="rgb(1,1,1)" stroke-width="1" opacity="0.996078431372549" d="M 212.5 265 L 214.5 268 L 212.5 265 Z " /><path fill="rgb(1,1,1)" stroke="rgb(1,1,1)" stroke-width="1" opacity="0.996078431372549" d="M 70.5 269 L 113 269.5 L 70.5 270 L 70.5 269 Z " /><path fill="rgb(1,1,1)" stroke="rgb(1,1,1)" stroke-width="1" opacity="0.996078431372549" d="M 129 269 L 156 269 L 156 332 L 129 331.5 L 155 331 L 155 270 L 130 270 L 129.5 298 L 129 269 Z " /><path fill="rgb(1,1,1)" stroke="rgb(1,1,1)" stroke-width="1" opacity="0.996078431372549" d="M 217.5 270 L 219.5 273 L 217.5 270 Z " /><path fill="rgb(1,1,1)" stroke="rgb(1,1,1)" stroke-width="1" opacity="0.996078431372549" d="M 256.5 270 L 266.5 281 L 256.5 270 Z " /><path fill="rgb(1,1,1)" stroke="rgb(1,1,1)" stroke-width="1" opacity="0.996078431372549" d="M 222.5 275 L 224.5 278 L 222.5 275 Z " /><path fill="rgb(1,1,1)" stroke="rgb(1,1,1)" stroke-width="1" opacity="0.996078431372549" d="M 227.5 280 L 229.5 283 L 227.5 280 Z " /><path fill="rgb(1,1,1)" stroke="rgb(1,1,1)" stroke-width="1" opacity="0.996078431372549" d="M 232.5 285 L 234.5 288 L 232.5 285 Z " /><path fill="rgb(1,1,1)" stroke="rgb(1,1,1)" stroke-width="1" opacity="0.996078431372549" d="M 237.5 290 L 239.5 293 L 237.5 290 Z " /><path fill="rgb(1,1,1)" stroke="rgb(1,1,1)" stroke-width="1" opacity="0.996078431372549" d="M 278.5 291 L 279.5 293 L 278.5 291 Z " /><path fill="rgb(1,1,1)" stroke="rgb(1,1,1)" stroke-width="1" opacity="0.996078431372549" d="M 280.5 294 L 283 295.5 L 242.5 296 L 242.5 295 L 279.5 295 L 280.5 294 Z " /><path fill="rgb(1,1,1)" stroke="rgb(1,1,1)" stroke-width="1" opacity="0.996078431372549" d="M 45.5 295 L 113 295.5 L 45.5 296 L 45.5 295 Z " /><path fill="rgb(1,1,1)" stroke="rgb(1,1,1)" stroke-width="1" opacity="0.996078431372549" d="M 172.5 295 L 199 295.5 L 172.5 296 L 172.5 295 Z " /><path fill="rgb(1,1,1)" stroke="rgb(1,1,1)" stroke-width="1" opacity="0.996078431372549" d="M 300.5 295 L 327 295.5 L 300.5 296 L 300.5 295 Z " /><path fill="rgb(1,1,1)" stroke="rgb(1,1,1)" stroke-width="1" opacity="0.996078431372549" d="M 468.5 307 L 469 308.5 L 466.5 310 L 466.5 309 Q 469 309.7 468.5 307 Z " /><path fill="rgb(1,1,1)" stroke="rgb(1,1,1)" stroke-width="1" opacity="0.996078431372549" d="M 419.5 315 L 422 315.5 L 419.5 316 L 419.5 315 Z " /><path fill="rgb(1,1,1)" stroke="rgb(1,1,1)" stroke-width="1" opacity="0.996078431372549" d="M 427.5 315 L 466 315.5 L 427.5 316 L 427.5 315 Z " /><path fill="rgb(0,0,0)" stroke="rgb(0,0,0)" stroke-width="1" opacity="0.8980392156862745" d="M 27.5 167 L 25.5 170 L 27.5 167 Z " /><path fill="rgb(0,0,0)" stroke="rgb(0,0,0)" stroke-width="1" opacity="0.8980392156862745" d="M 81.5 167 L 82 172.5 L 81 172.5 L 81.5 167 Z " /><path fill="rgb(0,0,0)" stroke="rgb(0,0,0)" stroke-width="1" opacity="0.8980392156862745" d="M 31.5 176 L 32 222.5 L 31 222.5 L 31.5 176 Z " /><path fill="rgb(0,0,0)" stroke="rgb(0,0,0)" stroke-width="1" opacity="0.8980392156862745" d="M 45.5 183 L 70 183.5 L 45.5 184 L 45.5 183 Z " /><path fill="rgb(0,0,0)" stroke="rgb(0,0,0)" stroke-width="1" opacity="0.8980392156862745" d="M 86.5 183 L 154 183.5 L 86.5 184 L 86.5 183 Z " /><path fill="rgb(0,0,0)" stroke="rgb(0,0,0)" stroke-width="1" opacity="0.8980392156862745" d="M 172.5 183 L 285 183.5 L 172 184 L 172 209.5 L 172.5 210 L 255.5 210 L 255.5 211 L 171.5 211 L 171 210.5 L 171 184.5 L 172.5 183 Z " /><path fill="rgb(0,0,0)" stroke="rgb(0,0,0)" stroke-width="1" opacity="0.8980392156862745" d="M 300.5 183 L 327 183.5 L 300.5 184 L 300.5 183 Z " /><path fill="rgb(0,0,0)" stroke="rgb(0,0,0)" stroke-width="1" opacity="0.8980392156862745" d="M 343.5 183 L 456 183.5 L 343.5 184 L 343.5 183 Z " /><path fill="rgb(0,0,0)" stroke="rgb(0,0,0)" stroke-width="1" opacity="0.8980392156862745" d="M 86.5 210 L 127.5 210 L 129 211.5 L 127.5 211 L 86.5 211 L 86.5 210 Z " /><path fill="rgb(0,0,0)" stroke="rgb(0,0,0)" stroke-width="1" opacity="0.8980392156862745" d="M 385.5 210 L 456 210.5 L 385.5 211 L 385.5 210 Z " /><path fill="rgb(0,0,0)" stroke="rgb(0,0,0)" stroke-width="1" opacity="0.8980392156862745" d="M 171.5 226 L 172 295.5 L 171 295.5 L 171.5 226 Z " /><path fill="rgb(0,0,0)" stroke="rgb(0,0,0)" stroke-width="1" opacity="0.8980392156862745" d="M 91.5 233 L 92 246.5 L 93 247.5 L 91 246.5 L 91.5 233 Z " /><path fill="rgb(0,0,0)" stroke="rgb(0,0,0)" stroke-width="1" opacity="0.8980392156862745" d="M 86.5 253 L 113 253.5 L 86.5 254 L 86.5 253 Z " /><path fill="rgb(0,0,0)" stroke="rgb(0,0,0)" stroke-width="1" opacity="0.8980392156862745" d="M 129.5 253 L 155 253.5 L 129.5 254 L 129.5 253 Z " /><path fill="rgb(0,0,0)" stroke="rgb(0,0,0)" stroke-width="1" opacity="0.8980392156862745" d="M 241.5 253 L 284 253.5 L 241.5 254 L 241.5 253 Z " /><path fill="rgb(0,0,0)" stroke="rgb(0,0,0)" stroke-width="1" opacity="0.8980392156862745" d="M 343.5 253 L 413.5 253 L 415 254.5 L 414.5 268 L 414 254 L 343.5 254 L 343.5 253 Z " /><path fill="rgb(0,0,0)" stroke="rgb(0,0,0)" stroke-width="1" opacity="0.8980392156862745" d="M 201.5 255 L 204.5 259 L 201.5 255 Z " /><path fill="rgb(0,0,0)" stroke="rgb(0,0,0)" stroke-width="1" opacity="0.8980392156862745" d="M 206.5 260 L 209.5 264 L 206.5 260 Z " /><path fill="rgb(0,0,0)" stroke="rgb(0,0,0)" stroke-width="1" opacity="0.8980392156862745" d="M 468.5 260 L 469 306.5 L 468 306.5 L 468.5 260 Z " /><path fill="rgb(0,0,0)" stroke="rgb(0,0,0)" stroke-width="1" opacity="0.8980392156862745" d="M 249.5 263 L 255.5 270 L 249.5 263 Z " /><path fill="rgb(0,0,0)" stroke="rgb(0,0,0)" stroke-width="1" opacity="0.8980392156862745" d="M 211.5 265 L 214.5 269 L 211.5 265 Z " /><path fill="rgb(0,0,0)" stroke="rgb(0,0,0)" stroke-width="1" opacity="0.8980392156862745" d="M 216.5 270 L 217.5 272 L 216.5 270 Z " /><path fill="rgb(0,0,0)" stroke="rgb(0,0,0)" stroke-width="1" opacity="0.8980392156862745" d="M 219.5 273 L 223.5 278 L 219.5 273 Z " /><path fill="rgb(0,0,0)" stroke="rgb(0,0,0)" stroke-width="1" opacity="0.8980392156862745" d="M 272.5 285 L 277.5 291 L 272.5 285 Z " /><path fill="rgb(0,0,0)" stroke="rgb(0,0,0)" stroke-width="1" opacity="0.8980392156862745" d="M 43.5 294 L 44.5 296 L 43.5 294 Z " /><path fill="rgb(0,0,0)" stroke="rgb(0,0,0)" stroke-width="1" opacity="0.8980392156862745" d="M 418.5 310 L 419 315.5 L 418 315.5 L 418.5 310 Z " /><path fill="rgb(0,0,0)" stroke="rgb(0,0,0)" stroke-width="1" opacity="0.8980392156862745" d="M 422.5 315 L 427 315.5 L 422.5 316 L 422.5 315 Z " /><path fill="rgb(0,0,0)" stroke="rgb(0,0,0)" stroke-width="1" opacity="0.8980392156862745" d="M 469.5 315 L 473 315.5 L 469.5 316 L 469.5 315 Z " /><path fill="rgb(1,1,1)" stroke="rgb(1,1,1)" stroke-width="1" opacity="1" d="M 27.5 168 L 80.5 168 L 81 173 L 33.5 173 L 31 175.5 L 31 222.5 L 26 223 L 26 169.5 L 27.5 168 Z " /><path fill="rgb(1,1,1)" stroke="rgb(1,1,1)" stroke-width="1" opacity="1" d="M 45.5 184 L 69.5 184 L 70 184.5 L 70 270 L 113 270 L 113 295 L 44 295 L 44 195.5 L 43 193.5 Q 45.8 191.8 44 185.5 L 45.5 184 Z " /><path fill="rgb(1,1,1)" stroke="rgb(1,1,1)" stroke-width="1" opacity="1" d="M 86 184 L 153.5 184 L 155 185.5 L 155 253 L 129.5 253 L 130 251.5 L 129 213.5 L 130 211.5 L 128.5 210 L 86 210 L 86 184 Z " /><path fill="rgb(1,1,1)" stroke="rgb(1,1,1)" stroke-width="1" opacity="1" d="M 172 184 L 284 184 L 284 253 L 242.5 253 L 240.5 252 L 239 254.5 L 270 283.5 Q 269.3 285.8 271.5 285 L 275 290 L 280 293.5 L 279.5 295 L 241.5 295 L 237.5 290 L 235 288.5 L 232.5 285 L 230 283.5 L 227.5 280 L 225 278.5 L 222.5 275 L 220 273.5 L 217.5 270 L 215 268.5 L 212.5 265 L 210 263.5 L 207.5 260 L 205 258.5 L 202.5 255 L 199.5 253 L 198 255.5 L 199 256.5 L 199 295 L 172 295 L 172 226 L 254.5 226 L 256.5 227 L 258 225.5 L 258 210 L 172.5 210 L 172 209.5 L 172 184 Z " /><path fill="rgb(1,1,1)" stroke="rgb(1,1,1)" stroke-width="1" opacity="1" d="M 300 184 L 326.5 184 L 327 184.5 L 327 295 L 300.5 295 L 300 294.5 L 300 184 Z " /><path fill="rgb(1,1,1)" stroke="rgb(1,1,1)" stroke-width="1" opacity="1" d="M 343.5 184 L 454.5 184 L 455 184.5 L 455 210 L 384.5 210 L 384 210.5 L 384 225.5 Q 385.3 228.3 386.5 226 L 455 226 L 455 295 L 344.5 295 L 344 294.5 L 344 270 L 414.5 270 L 415 269.5 L 415 253 L 344 253 L 344 185.5 L 343.5 184 Z " /><path fill="rgb(1,1,1)" stroke="rgb(1,1,1)" stroke-width="1" opacity="1" d="M 86.5 226 L 87.5 227 L 111.5 227 L 113 226.5 L 113 253 L 86 253 L 86.5 226 Z M 91 231 L 91 248 L 108 248 L 108 233 L 107 231 L 91 231 Z " /><path fill="rgb(1,1,1)" stroke="rgb(1,1,1)" stroke-width="1" opacity="1" d="M 469 260 L 474 260.5 L 474 313.5 L 472.5 315 L 419 315 L 419.5 310 L 467.5 310 L 469 308.5 L 469 260 Z " /><path fill="rgb(1,1,1)" stroke="rgb(1,1,1)" stroke-width="1" opacity="1" d="M 130 270 L 155 270 L 155 331 L 129 331 L 129 298.5 L 130 297.5 L 130 270 Z " /></svg>