<svg width="500" height="500" version="1.1" xmlns="http://www.w3.org/2000/svg" desc="Created with imagetracer.js version 1.2.6" ><path fill="rgb(41,84,94)" stroke="rgb(41,84,94)" stroke-width="1" opacity="0.9333333333333333" d="M 94.5 211 Q 108.8 209.2 117.5 213 Q 127.3 217.3 134 224.5 Q 144 234.5 145 253.5 L 142 267.5 Q 137.8 278.3 129.5 285 L 114.5 293 Q 106.6 295.6 94.5 294 Q 78.6 290.4 70 279.5 Q 60.7 269.3 60 250.5 L 63 237.5 Q 66.9 227.4 74.5 221 Q 82.1 213.6 94.5 211 Z " /><path fill="rgb(41,84,94)" stroke="rgb(41,84,94)" stroke-width="1" opacity="0.9333333333333333" d="M 184.5 223 Q 200 220.5 205.5 228 L 207 224.5 L 206.5 223 L 218.5 223 L 219 223.5 L 219 275.5 L 215.5 283 L 214 283.5 L 215 284.5 L 208.5 291 L 203.5 293 L 202 292.5 Q 202.9 295.5 198.5 294 L 197.5 295 L 187.5 295 Q 175.8 292.7 169 285.5 L 171.5 282 L 178.5 277 Q 183.4 283.6 196.5 282 L 203 279 Q 206 276.2 205.5 269 L 207 269.5 Q 207.8 266.9 204.5 268 Q 199.5 274 187.5 273 Q 175.7 270.8 170 262.5 Q 166 258.5 166 250.5 L 166.5 249 Q 163.9 249.8 165 246.5 L 167 238.5 L 173.5 229 L 184.5 223 Z M 189 234 L 188 236 L 185 237 L 179 244 L 179 252 L 180 253 L 179 255 L 187 260 L 198 260 L 203 257 L 205 254 L 205 243 L 204 241 L 199 236 L 189 234 Z " /><path fill="rgb(41,84,94)" stroke="rgb(41,84,94)" stroke-width="1" opacity="0.9333333333333333" d="M 243 223 L 259.5 224 Q 267.3 227.3 272 233.5 L 273 235.5 L 272.5 237 Q 274.8 236.3 274 238.5 Q 277.8 243.2 276 253.5 Q 273.5 262 267.5 267 Q 260.2 274.2 244.5 273 Q 233.6 270.9 228 263.5 L 228.5 262 L 226 260.5 Q 221.3 254.7 223 242.5 L 225 242.5 L 224 239 L 226 238.5 L 225 236.5 L 233.5 227 L 241.5 224 L 243 224.5 L 243 223 Z M 247 235 L 241 238 L 237 244 Q 236 251 238 255 Q 241 259 248 261 Q 255 262 259 258 L 262 253 Q 264 245 261 242 Q 258 234 247 235 Z " /><path fill="rgb(41,84,94)" stroke="rgb(41,84,94)" stroke-width="1" opacity="0.9333333333333333" d="M 302.5 223 L 313.5 223 L 314 224.5 L 315.5 224 Q 324.5 226.4 329 233.5 Q 334.3 240.1 333 252 L 331 252.5 L 332 255.5 L 330 255.5 L 331 258.5 L 323.5 268 Q 317.4 273.9 304.5 273 L 294 269 L 293.5 291 L 291.5 291 L 282.5 291 L 281.5 290 L 280 290.5 L 280 224.5 L 280.5 224 L 293 224 L 293.5 228 L 302.5 223 Z M 304 235 L 293 242 L 294 243 L 294 254 L 295 256 Q 298 260 305 261 L 314 259 L 319 252 L 318 242 Q 315 234 304 235 Z " /><path fill="rgb(41,84,94)" stroke="rgb(41,84,94)" stroke-width="1" opacity="0.9333333333333333" d="M 353 223 Q 371.8 220.4 379 230.5 L 380 232.5 L 379.5 234 Q 381.8 233.3 381 235.5 L 382 236.5 L 382 270.5 L 380.5 272 L 370 272 L 369.5 267 Q 364 274.5 349.5 273 Q 341.9 271.1 338 265.5 Q 335 262.5 336 255.5 Q 337.4 249.4 342.5 247 L 349.5 244 L 363.5 242 L 368 239.5 Q 368.5 235.5 365.5 235 L 356.5 234 L 350 238.5 L 349 242 L 336 240 Q 335.2 235 338.5 233 L 340 232.5 L 339 231.5 L 342.5 228 L 351.5 224 L 353 224.5 L 353 223 Z M 369 249 L 364 252 L 355 253 L 349 257 Q 349 261 352 261 Q 365 263 369 256 L 369 249 Z " /><path fill="rgb(41,84,94)" stroke="rgb(41,84,94)" stroke-width="1" opacity="0.9333333333333333" d="M 383 224 L 396.5 224 L 398 225.5 L 405 240.5 L 404 242.5 L 406 242.5 L 411.5 254 L 415 246 L 417 245.5 L 416 243.5 L 421 233 L 423 232.5 L 422 230.5 L 425 224 L 439.5 224 L 440 225.5 L 438 225.5 L 439 227.5 L 437 228.5 L 437.5 230 L 436 229.5 L 437 231.5 L 435 232.5 L 436 234.5 L 421.5 263 L 420 262.5 L 421 264.5 L 419 269 L 417 269.5 L 418 271.5 L 415 273.5 L 416 275.5 L 407.5 291 L 405.5 291 L 395.5 291 L 395 289.5 L 395 287.5 L 397.5 282 L 399 282.5 L 398 280.5 L 402.5 272 L 404 272.5 L 403 270.5 L 404 268.5 L 401 262.5 L 401.5 261 L 400 260.5 L 401 258.5 L 399 258.5 L 400 256.5 L 398 256.5 L 399 254.5 L 397 254.5 L 383 226.5 L 383 224 Z " /><path fill="rgb(0,0,0)" stroke="rgb(0,0,0)" stroke-width="1" opacity="0" d="M 0 0 L 500 0 L 500 500 L 0 500 L 0 0 Z M 95 211 Q 82 214 75 221 Q 67 227 63 238 L 60 251 Q 61 269 70 280 Q 79 290 95 294 Q 107 296 115 293 L 130 285 Q 138 278 142 268 L 145 254 Q 144 235 134 225 Q 127 217 118 213 Q 109 209 95 211 Z M 185 223 L 185 225 L 182 224 L 182 226 L 180 225 L 180 227 L 178 226 Q 179 228 176 230 L 174 229 L 172 232 L 172 234 L 169 235 L 170 237 L 168 237 L 169 239 L 168 238 L 166 242 L 167 247 L 166 246 L 165 249 L 167 250 L 166 255 L 168 255 L 167 258 L 169 258 L 168 260 L 171 261 L 170 263 L 172 262 L 176 267 L 176 268 L 178 267 L 179 270 L 181 269 L 181 271 L 184 270 L 184 272 L 188 271 L 187 273 L 195 273 L 195 271 L 199 272 L 199 270 L 201 271 L 201 269 L 203 270 L 202 269 Q 203 266 205 268 Q 208 267 207 270 L 205 270 Q 204 275 206 277 L 205 276 L 203 279 L 204 280 L 202 279 L 201 282 L 198 281 L 198 283 L 197 282 L 188 282 L 187 283 L 187 281 L 184 282 L 184 280 L 182 281 L 182 279 L 180 280 L 178 279 L 175 282 L 174 281 L 172 282 Q 169 283 171 285 L 170 287 L 172 287 L 174 287 L 175 290 L 177 289 L 177 291 L 179 290 L 179 292 L 181 291 L 181 293 L 184 292 L 184 294 L 188 293 L 188 295 Q 197 296 202 294 L 203 292 L 205 293 L 205 291 L 207 292 L 207 290 L 209 291 L 208 290 L 216 283 L 215 282 L 217 282 L 216 279 L 218 279 L 219 276 L 219 224 L 219 223 L 207 223 L 207 225 L 205 229 L 204 226 L 202 227 L 202 225 L 200 226 L 200 224 L 198 225 L 198 224 L 185 223 Z M 243 223 L 243 225 L 240 224 L 240 226 L 238 225 L 238 227 L 236 226 L 236 228 L 234 227 L 234 229 L 229 234 L 227 234 L 228 236 L 225 237 L 226 239 L 224 239 L 225 243 L 224 242 L 223 254 L 225 254 L 224 257 L 226 257 L 225 259 L 227 259 L 226 261 L 228 260 L 227 262 L 229 262 L 232 266 Q 230 267 233 268 L 235 267 L 234 269 L 237 270 L 239 269 L 239 271 L 241 270 L 241 272 L 245 271 L 244 273 L 255 273 L 255 271 L 259 272 L 259 270 L 261 271 L 261 269 L 263 270 L 263 268 L 265 269 L 264 268 L 266 268 L 268 267 L 267 266 Q 269 262 271 264 L 270 262 L 273 261 L 272 259 L 274 259 L 273 257 L 275 257 L 274 254 L 276 254 L 276 243 L 274 243 L 275 240 L 273 240 L 274 237 L 271 236 L 272 234 L 271 234 L 266 230 L 267 229 L 266 228 L 264 228 L 264 226 L 262 227 L 262 225 L 260 226 L 260 225 Q 254 221 243 223 Z M 303 223 L 296 226 L 295 229 Q 292 228 293 224 L 281 224 L 280 225 L 280 291 L 282 290 L 283 291 L 292 291 L 294 291 L 294 270 L 296 269 L 298 269 L 298 271 L 301 270 L 300 272 Q 305 274 313 273 L 313 271 L 317 272 L 317 270 L 319 271 L 319 269 L 321 270 L 320 269 L 322 269 L 324 268 L 323 267 Q 326 262 328 264 L 327 262 L 330 261 L 329 259 L 331 259 L 330 256 L 332 256 L 332 254 L 332 252 L 333 252 L 333 244 L 331 244 L 332 240 L 330 240 L 331 238 L 329 238 L 330 236 L 328 236 L 329 234 L 328 234 L 322 229 L 323 228 L 322 227 L 320 227 L 320 225 L 318 226 L 318 225 L 316 224 L 314 225 L 314 223 L 303 223 Z M 353 223 L 353 225 L 350 224 L 350 226 L 348 225 L 348 227 L 346 226 L 346 228 L 345 227 L 343 228 L 343 230 L 339 233 L 339 235 L 337 235 L 338 237 L 337 236 L 336 240 L 340 239 L 340 241 L 345 240 L 344 242 L 349 242 L 348 240 L 350 240 L 350 239 Q 347 237 352 235 L 354 236 L 354 234 L 356 235 L 355 234 L 357 234 Q 363 236 365 233 L 365 235 L 367 234 L 366 236 L 369 237 L 368 240 Q 370 241 368 242 L 365 241 L 365 243 L 361 242 L 361 244 L 360 243 L 350 244 L 350 246 L 347 245 L 347 247 L 345 246 L 345 248 L 343 247 L 343 249 L 339 253 L 337 253 L 338 256 L 337 255 L 336 262 L 338 262 L 337 264 L 339 264 L 338 266 L 340 265 Q 344 268 343 270 L 345 269 L 345 271 L 347 270 L 346 272 Q 350 274 359 273 L 359 271 L 363 272 L 363 270 L 365 271 L 365 269 L 367 270 L 366 269 Q 368 264 370 268 L 370 272 L 381 272 L 382 271 L 382 237 L 380 237 L 381 234 L 378 233 L 379 231 L 378 231 Q 374 229 376 227 L 374 228 L 373 225 L 370 226 L 370 224 L 367 225 L 367 224 L 353 223 Z M 383 224 L 383 227 L 385 227 L 384 229 L 386 229 L 385 231 L 387 231 L 386 233 L 388 233 L 387 235 L 389 235 L 388 237 L 390 237 L 389 239 L 391 239 L 390 241 L 392 241 L 391 243 L 393 243 L 392 245 L 394 245 L 393 247 L 395 247 L 394 249 L 396 249 L 395 251 L 397 250 L 396 252 L 397 255 L 399 254 L 401 259 L 400 261 L 402 262 L 401 264 L 403 264 L 402 266 L 404 265 L 403 267 L 405 271 L 404 273 L 402 273 L 403 275 L 401 275 L 402 277 L 400 277 L 401 279 L 399 279 L 400 281 L 399 283 L 397 283 L 398 285 L 396 285 L 397 287 L 396 286 L 395 288 L 395 290 L 396 291 L 406 291 Q 407 288 409 290 L 408 288 L 410 288 L 409 286 L 411 286 L 410 284 L 412 284 L 411 282 L 413 282 L 412 280 L 414 280 L 413 278 L 415 278 L 414 276 L 416 276 L 415 274 L 417 273 L 416 272 L 418 272 L 417 270 L 419 269 L 418 267 L 420 267 L 419 265 L 420 263 L 422 263 L 421 261 L 423 261 L 422 259 L 424 259 L 423 257 L 425 257 L 424 255 L 426 255 L 425 253 L 427 253 L 426 251 L 428 251 L 427 249 L 429 249 L 428 247 L 430 247 L 429 245 L 431 245 L 430 243 L 432 243 L 431 241 L 433 241 L 432 239 L 434 239 L 433 237 L 435 237 L 434 235 L 436 235 L 435 233 L 437 232 L 436 230 L 439 228 L 438 226 L 440 226 L 440 224 L 425 224 L 426 227 L 424 227 L 425 229 L 423 229 L 424 231 L 422 231 L 423 233 L 421 233 L 422 236 L 420 236 L 421 238 L 419 238 L 420 240 L 418 240 L 419 242 L 417 242 L 418 244 L 416 244 L 417 246 L 415 246 L 416 249 L 414 249 L 415 251 L 413 251 L 414 253 L 413 252 L 412 254 L 413 255 L 411 253 L 409 253 L 410 251 L 408 251 L 409 249 L 407 249 L 408 247 L 406 247 L 407 245 L 405 245 L 406 243 L 405 243 L 403 241 L 404 238 L 402 238 L 403 236 L 401 236 L 402 234 L 400 234 L 401 232 L 399 232 L 400 230 L 398 230 L 399 228 L 397 228 L 398 226 L 397 224 L 383 224 Z " /><path fill="rgb(0,0,0)" stroke="rgb(0,0,0)" stroke-width="1" opacity="0" d="M 188.5 234 Q 190 236.5 195.5 235 L 197 234.5 L 196.5 236 L 199.5 235 L 199.5 237 L 201.5 236 L 205 239.5 L 204 240.5 L 204.5 242 L 206 241.5 L 205 242.5 L 205 253.5 L 205.5 255 Q 204.3 252.8 203 255.5 L 204 257.5 L 202.5 257 L 200 258.5 L 200.5 260 L 198.5 259 L 198.5 261 L 197.5 260 L 186.5 260 L 185 260.5 L 185.5 259 L 183.5 260 Q 178.7 257.5 180.5 255 L 179 254.5 L 180 252.5 L 178 252.5 L 180 241.5 Q 177.8 240.3 180.5 239 Q 181.8 241.3 183 238.5 Q 180.8 237.3 183.5 236 L 185.5 237 L 185.5 235 L 188 236 L 188.5 234 Z " /><path fill="rgb(0,0,0)" stroke="rgb(0,0,0)" stroke-width="1" opacity="0" d="M 245.5 234 Q 247 236.5 252.5 235 L 254 234.5 L 253.5 236 L 256.5 235 L 259.5 240 Q 260.8 237.8 262 240.5 L 261 242.5 L 263 242.5 L 262 243.5 L 262 252.5 L 262.5 254 L 261 253.5 L 262 255.5 L 260 255.5 L 258.5 258 L 257 258.5 Q 259.3 259.8 256.5 261 L 253.5 260 L 246.5 262 L 246.5 260 L 243.5 261 L 243.5 259 L 241.5 260 L 237 255.5 L 238 254.5 L 237.5 253 L 236 253.5 L 237 252.5 L 237 243.5 L 236.5 242 L 238 242.5 L 237 240.5 L 239 240.5 L 240 238.5 L 239.5 237 L 241.5 238 L 242.5 235 L 245.5 236 L 245.5 234 Z " /><path fill="rgb(0,0,0)" stroke="rgb(0,0,0)" stroke-width="1" opacity="0" d="M 302.5 234 Q 304 236.5 309.5 235 L 311 234.5 L 310.5 236 L 313.5 237 L 315 236.5 Q 312.2 238.3 316.5 240 Q 317.8 237.8 319 240.5 L 318 243.5 L 320 243.5 Q 317.3 245.3 319 251.5 L 319.5 253 L 318 252.5 L 319 254.5 L 317 254.5 L 318 256.5 L 314.5 260 L 313.5 259 L 312 259.5 L 312.5 261 L 308.5 260 L 303.5 262 L 303.5 260 L 299.5 261 L 299.5 259 L 297.5 260 L 294 256.5 L 295 255.5 L 294.5 254 L 293 254.5 L 294 253.5 L 294 242.5 L 293.5 241 L 295 240.5 L 294 239.5 L 297.5 236 L 299.5 237 L 299.5 235 L 302.5 236 L 302.5 234 Z " /><path fill="rgb(0,0,0)" stroke="rgb(0,0,0)" stroke-width="1" opacity="0" d="M 367.5 248 L 369 249.5 Q 367.5 255 370 256.5 Q 368 254.8 366 258.5 Q 368.3 259.8 365.5 261 L 362.5 260 L 362.5 262 L 361.5 261 L 351.5 261 L 350 261.5 Q 352.5 260 349 258.5 L 348 255.5 Q 349.3 252.8 350.5 255 L 352 254.5 L 351.5 253 L 353.5 254 L 359 252.5 L 358.5 251 L 363.5 252 L 363.5 250 L 366.5 251 L 367.5 248 Z " /></svg>